<?xml version="1.0" encoding="UTF-8"?>
<svg xmlns="http://www.w3.org/2000/svg" viewBox="537.828125 -286.53125 34.13671875 32.28515625">
    <g transform="scale(1 -1)">
        <path fill="#F1F0EA" stroke="#F1F0EA" stroke-opacity="1" stroke-width="1.57249999" d="m 685.23438,422.17188 0,3.14453 0,-3.14453 z m 11.45507,0 0,3.14453 0,-3.14453 z m -16.20898,3.25781 34.47656,0 -34.47656,0 z" transform="matrix(0.8,0,0,-0.8,0,595.22)"/>
        <path id="path358-2" fill="#F1F0EA" fill-opacity="1" fill-rule="nonzero" stroke="none" d="m 562.77195,261.76473 9.194,0 0,-7.517 -9.194,0 0,7.517 z"/>
        <path fill="#F1F0EA" fill-opacity="1" fill-rule="evenodd" stroke="none" d="M 690.40039 397.50391 L 690.40039 400.46094 L 683.0625 400.46094 C 681.64 400.46094 680.48047 401.62047 680.48047 403.04297 L 680.48047 419.28906 C 680.48047 420.71031 681.64 421.87305 683.0625 421.87305 L 698.78516 421.87305 C 700.20766 421.87305 701.36719 420.71031 701.36719 419.28906 L 701.36719 403.04297 C 701.36719 401.62047 700.20766 400.46094 698.78516 400.46094 L 691.44922 400.46094 L 691.44922 397.50391 L 690.40039 397.50391 z M 690.84961 397.95312 L 690.96289 397.95312 L 690.96289 400.46094 L 690.84961 400.46094 L 690.84961 397.95312 z M 682.50391 403.53125 L 689.91406 403.53125 L 689.91406 407.79688 L 682.50391 407.79688 L 682.50391 403.53125 z M 692.01172 403.56836 L 699.42188 403.56836 L 699.42188 407.83594 L 692.01172 407.83594 L 692.01172 403.56836 z M 690.77344 411.39062 L 691.07422 411.39062 L 691.26172 411.42969 L 691.37305 411.4668 L 691.41016 411.50391 L 691.56055 411.57812 L 691.63477 411.65234 L 691.71094 411.68945 L 691.74805 411.72656 L 691.74805 411.80273 L 691.78516 411.80273 L 691.86133 411.87695 L 691.86133 411.95312 L 691.89844 411.95312 L 691.93555 411.99023 L 691.93555 412.06445 L 691.97266 412.06445 L 691.97266 412.17773 L 692.00977 412.17773 L 692.00977 412.36328 L 692.04883 412.36328 C 692.04258 412.93453 691.70758 413.48625 691.11133 413.5625 L 691.11133 413.59961 L 690.73633 413.5625 L 690.58789 413.52539 L 690.36328 413.41211 L 690.32617 413.375 L 690.25 413.33789 L 690.09961 413.1875 L 690.0625 413.1875 L 690.0625 413.11328 L 690.02539 413.07422 L 689.98828 413.07422 L 689.98828 413 L 689.95117 413 L 689.95117 412.92578 L 689.91406 412.92578 L 689.91406 412.85156 L 689.87695 412.85156 L 689.87695 412.70117 L 689.83984 412.70117 C 689.80484 412.26617 689.86336 412.08938 690.09961 411.76562 C 690.32336 411.55563 690.45969 411.44937 690.77344 411.39062 z M 692.23438 411.63477 C 692.23807 411.64032 692.24051 411.64674 692.24414 411.65234 L 692.23438 411.65234 L 692.23438 411.63477 z M 692.27148 411.70508 C 692.27565 411.71209 692.27914 411.71948 692.2832 411.72656 L 692.27148 411.72656 L 692.27148 411.70508 z M 692.30859 411.77344 C 692.31378 411.78327 692.31923 411.79277 692.32422 411.80273 L 692.30859 411.80273 L 692.30859 411.77344 z M 692.38477 411.93359 C 692.3872 411.93988 692.38827 411.9468 692.39062 411.95312 L 692.38477 411.95312 L 692.38477 411.93359 z M 692.42188 412.05469 C 692.42287 412.05805 692.4248 412.06108 692.42578 412.06445 L 692.42188 412.06445 L 692.42188 412.05469 z M 692.45898 412.17383 C 692.46183 412.18725 692.46233 412.20127 692.46484 412.21484 L 692.45898 412.21484 L 692.45898 412.17383 z M 692.48242 412.63477 C 692.44415 413.1114 692.1932 413.52223 691.81836 413.77539 C 692.19202 413.51842 692.42139 413.10232 692.48242 412.63477 z M 689.41797 412.81445 L 689.42773 412.81445 L 689.42773 412.85156 C 689.42501 412.83903 689.42039 412.82711 689.41797 412.81445 z M 689.46094 412.96289 L 689.46484 412.96289 L 689.46484 412.97461 C 689.46364 412.97068 689.46211 412.96683 689.46094 412.96289 z M 689.49414 413.07422 L 689.50195 413.07422 L 689.50195 413.09766 C 689.49893 413.09012 689.49704 413.08182 689.49414 413.07422 z M 689.52539 413.15039 L 689.53906 413.15039 L 689.53906 413.17578 C 689.53493 413.16698 689.52936 413.15929 689.52539 413.15039 z M 689.56445 413.22461 L 689.57617 413.22461 L 689.57617 413.24609 C 689.5723 413.23885 689.56822 413.23192 689.56445 413.22461 z M 689.60547 413.30078 L 689.61523 413.30078 L 689.61523 413.31836 C 689.61174 413.31262 689.60888 413.30658 689.60547 413.30078 z M 689.64453 413.375 L 689.65234 413.375 L 689.76367 413.48828 L 689.76367 413.51953 C 689.723 413.47248 689.67921 413.42697 689.64453 413.375 z M 689.81641 413.57617 C 689.84162 413.6025 689.87142 413.62395 689.89844 413.64844 L 689.95117 413.67578 L 690.04883 413.77344 C 690.07334 413.79051 690.1014 413.80271 690.12695 413.81836 L 690.0625 413.78711 L 690.04883 413.77344 C 689.99508 413.73599 689.94681 413.69228 689.89844 413.64844 L 689.87695 413.63672 L 689.81641 413.57617 z M 690.74219 414.01953 L 691.04883 414.03711 C 691.00687 414.04037 690.9666 414.04883 690.92383 414.04883 C 690.85962 414.04883 690.80317 414.02839 690.74219 414.01953 z M 696.61523 416.0332 C 696.7272 416.0332 696.83576 416.04751 696.94141 416.07031 L 696.28906 416.07031 C 696.39477 416.04751 696.50327 416.0332 696.61523 416.0332 z M 696.16016 416.10938 C 696.1031 416.12797 696.04408 416.14413 695.99023 416.16797 C 695.85133 416.22945 695.7291 416.31348 695.61523 416.40625 C 695.72931 416.31089 695.85277 416.22849 695.99023 416.16797 C 696.04483 416.14393 696.10264 416.12715 696.16016 416.10938 z M 697.0918 416.11719 C 697.22789 416.16147 697.35715 416.2171 697.47461 416.29492 C 697.49913 416.31117 697.52137 416.3301 697.54492 416.34766 L 697.51367 416.33203 L 697.47461 416.29492 C 697.35052 416.2264 697.22513 416.16361 697.0918 416.11719 z M 685.89258 416.24219 C 685.94666 416.26941 686.0004 416.29507 686.05078 416.32812 L 685.9082 416.25781 L 685.89258 416.24219 z M 697.66797 416.44922 C 697.70404 416.48214 697.73856 416.51666 697.77148 416.55273 L 697.66797 416.44922 z M 696.42773 416.51953 L 696.80273 416.51953 C 697.06773 416.55828 697.19914 416.69086 697.40039 416.81836 L 697.40039 416.89453 L 697.4375 416.89453 L 697.55078 417.00586 L 697.55078 417.08203 L 697.58789 417.08203 L 697.58789 417.15625 L 697.625 417.15625 L 697.625 417.23047 L 697.66211 417.23047 L 697.66211 417.3418 L 697.69922 417.3418 L 697.66211 417.86719 L 697.625 418.01562 L 697.58789 418.0918 L 697.55078 418.12891 C 697.41828 418.48016 697.09992 418.61695 696.76367 418.68945 L 696.76367 418.72656 L 696.50195 418.68945 L 696.31445 418.65234 L 696.20312 418.61523 L 695.97852 418.50391 L 695.75391 418.2793 L 695.71484 418.2793 L 695.71484 418.20312 L 695.67773 418.16602 L 695.64062 418.16602 L 695.64062 418.0918 L 695.60352 418.0918 L 695.60352 418.01562 L 695.56641 418.01562 L 695.56641 417.86719 L 695.5293 417.86719 L 695.5293 417.3418 L 695.56641 417.23047 L 695.67773 417.00586 L 695.79102 416.89453 L 695.82812 416.81836 L 695.90234 416.78125 C 696.04359 416.635 696.22523 416.55453 696.42773 416.51953 z M 684.97266 416.55664 L 685.42188 416.55664 L 685.64648 416.63086 L 685.68359 416.66797 L 685.83398 416.74414 L 686.13281 417.04297 L 686.13281 417.11914 L 686.16992 417.11914 L 686.16992 417.19336 L 686.20898 417.19336 L 686.20898 417.26758 L 686.24609 417.26758 L 686.24609 417.41797 L 686.2832 417.41797 C 686.30695 417.86422 686.23148 418.01977 686.02148 418.35352 C 685.86398 418.54852 685.56109 418.70906 685.30859 418.72656 L 685.30859 418.76562 L 685.08398 418.72656 L 684.89844 418.68945 L 684.78516 418.65234 L 684.56055 418.54102 L 684.29883 418.2793 L 684.26172 418.2793 L 684.26172 418.20312 L 684.22461 418.20312 L 684.22461 418.12891 L 684.1875 418.12891 L 684.1875 418.05469 L 684.14844 418.05469 L 684.14844 417.94141 L 684.11133 417.94141 L 684.11133 417.38086 L 684.14844 417.26758 L 684.26172 417.04297 L 684.33594 416.96875 L 684.37305 416.89453 C 684.5568 416.73578 684.71766 416.59414 684.97266 416.55664 z M 697.84961 416.64844 C 697.87559 416.68171 697.90443 416.71275 697.92773 416.74805 L 697.88672 416.70703 L 697.84961 416.70703 L 697.84961 416.64844 z M 686.43359 416.6875 C 686.44953 416.70798 686.46194 416.73074 686.47656 416.75195 L 686.50586 416.78125 L 686.50586 416.79688 C 686.5185 416.81662 686.53293 416.8351 686.54492 416.85547 L 686.50586 416.85547 L 686.50586 416.79688 C 686.49624 416.78184 686.48668 416.76664 686.47656 416.75195 L 686.46875 416.74414 L 686.43359 416.74414 L 686.43359 416.6875 z M 697.96094 416.80859 C 697.97012 416.82392 697.97766 416.83982 697.98633 416.85547 L 697.96094 416.85547 L 697.96094 416.80859 z M 698 416.88086 C 698.00908 416.89798 698.01889 416.91417 698.02734 416.93164 L 698 416.93164 L 698 416.88086 z M 686.58203 416.91797 C 686.59111 416.93509 686.6009 416.95128 686.60938 416.96875 L 686.58203 416.96875 L 686.58203 416.91797 z M 698.03711 416.94922 C 698.04618 416.96861 698.05811 416.98606 698.06641 417.00586 L 698.03711 417.00586 L 698.03711 416.94922 z M 686.61914 416.98633 C 686.62822 417.00572 686.64014 417.02317 686.64844 417.04297 L 686.61914 417.04297 L 686.61914 416.98633 z M 698.07422 417.0332 C 698.08525 417.06094 698.0921 417.09068 698.10156 417.11914 L 698.07422 417.11914 L 698.07422 417.0332 z M 686.65625 417.07031 C 686.66728 417.09805 686.67413 417.12779 686.68359 417.15625 L 686.65625 417.15625 L 686.65625 417.07031 z M 698.11133 417.15234 C 698.11933 417.17832 698.12811 417.20396 698.13477 417.23047 L 698.11133 417.23047 L 698.11133 417.15234 z M 686.69336 417.18945 C 686.70518 417.22783 686.71965 417.26517 686.72852 417.30469 L 686.69336 417.30469 L 686.69336 417.18945 z M 698.14844 417.27148 C 698.15898 417.31913 698.16193 417.36889 698.16797 417.41797 L 698.14844 417.41797 L 698.14844 417.27148 z M 686.73242 417.31641 C 686.74474 417.37348 686.74808 417.43311 686.75391 417.49219 L 686.73242 417.49219 L 686.73242 417.31641 z M 698.17578 417.50195 C 698.17815 417.53687 698.1875 417.57 698.1875 417.60547 C 698.1875 418.16584 697.88309 418.6588 697.43555 418.9375 C 697.3519 418.98959 697.26475 419.03251 697.17188 419.06836 C 697.07739 419.10483 696.97889 419.13284 696.87695 419.15039 L 696.87695 419.14062 C 696.9807 419.12719 697.07862 419.10259 697.17188 419.06836 C 697.26513 419.03413 697.35361 418.98966 697.43555 418.9375 C 697.90379 418.63942 698.16837 418.07124 698.17578 417.50195 z M 686.75977 417.55078 C 686.76163 417.58178 686.76953 417.61115 686.76953 417.64258 C 686.76953 417.91822 686.67636 418.16495 686.54883 418.39062 C 686.68814 418.14282 686.70975 417.93874 686.75977 417.55078 z M 695.06445 417.83008 L 695.08008 417.83008 L 695.08008 417.93945 C 695.07216 417.90378 695.06985 417.86658 695.06445 417.83008 z M 683.64844 417.86719 L 683.66211 417.86719 L 683.66211 417.96875 C 683.65496 417.93565 683.65343 417.90099 683.64844 417.86719 z M 695.10352 418.01562 L 695.11719 418.01562 L 695.11719 418.05859 C 695.11275 418.04423 695.10754 418.03015 695.10352 418.01562 z M 683.68945 418.05469 L 683.69922 418.05469 L 683.69922 418.08789 C 683.69588 418.07684 683.69256 418.06583 683.68945 418.05469 z M 695.13867 418.12891 L 695.1543 418.12891 L 695.1543 418.17773 C 695.14801 418.16197 695.14445 418.14491 695.13867 418.12891 z M 683.72266 418.16602 L 683.73633 418.16602 L 683.73633 418.20898 C 683.73086 418.19509 683.72774 418.18009 683.72266 418.16602 z M 695.18164 418.24219 L 695.19141 418.24219 L 695.19141 418.26172 C 695.18829 418.25508 695.18466 418.24887 695.18164 418.24219 z M 683.76562 418.2793 L 683.77344 418.2793 L 683.77344 418.29492 C 683.77097 418.28961 683.76806 418.28464 683.76562 418.2793 z M 695.22266 418.31641 L 695.22852 418.31641 L 695.26758 418.35352 L 695.26758 418.39844 C 695.25155 418.37159 695.2371 418.34423 695.22266 418.31641 z M 683.80664 418.35352 L 683.8125 418.35352 L 683.8125 418.36523 C 683.81045 418.36136 683.80866 418.35741 683.80664 418.35352 z M 695.28516 418.42969 L 695.30469 418.42969 L 695.30469 418.4668 C 695.29693 418.45515 695.29261 418.44155 695.28516 418.42969 z M 695.33203 418.50391 L 695.3418 418.50391 L 695.41602 418.57812 L 695.41602 418.60547 C 695.38784 418.5719 695.35739 418.53972 695.33203 418.50391 z M 683.89258 418.50977 L 683.96094 418.57812 L 683.96094 418.5957 C 683.93842 418.56669 683.91308 418.54031 683.89258 418.50977 z M 695.45508 418.65234 L 695.56641 418.76562 C 695.52697 418.72996 695.49078 418.69174 695.45508 418.65234 z M 686.32422 418.71289 C 686.3083 418.7323 686.30057 418.74517 686.2832 418.76562 C 686.22535 418.80692 686.1926 418.82594 686.14648 418.85938 C 686.2072 418.81204 686.27101 418.76836 686.32422 418.71289 z M 695.62305 418.8125 L 695.67773 418.83984 L 695.75391 418.91406 L 696.05273 419.06445 L 696.16602 419.10156 L 696.35156 419.14062 L 696.7207 419.16602 C 696.68514 419.16848 696.65136 419.17773 696.61523 419.17773 C 696.45828 419.17773 696.3097 419.1454 696.16602 419.10156 C 695.96521 419.0403 695.78194 418.94348 695.62305 418.8125 z M 684.20508 418.84766 L 684.26172 418.87695 L 684.33594 418.95312 C 684.28922 418.9221 684.24819 418.88333 684.20508 418.84766 z M 684.34375 418.95703 C 684.45961 419.03305 684.58695 419.08731 684.7207 419.13086 L 684.63477 419.10156 L 684.34375 418.95703 z M 685.85156 419.04883 C 685.72913 419.11297 685.60042 419.16315 685.45898 419.1875 L 685.45898 419.17773 C 685.62882 419.14193 685.74814 419.10062 685.85156 419.04883 z M 684.75586 419.14258 C 684.83262 419.16556 684.91579 419.16876 684.99609 419.18164 L 685.30273 419.20312 C 685.26718 419.20559 685.23339 419.21484 685.19727 419.21484 C 685.12719 419.21484 685.06336 419.19243 684.99609 419.18164 L 684.93555 419.17773 L 684.75586 419.14258 z " transform="matrix(0.8,0,0,-0.8,0,595.22)"/>
        <path fill="#F1F0EA" stroke="#F1F0EA" stroke-opacity="1" stroke-width="0.419" d="m 548.57745,277.42703 8.355,0 m -8.355,0 8.355,0"/>
        <path fill="#ffffff" fill-opacity="1" fill-rule="nonzero" stroke="none" d="m 693.13281,385.86133 0,0.0371 c -3.4325,1.5925 -6.85797,3.20601 -10.29297,4.79101 -1.84125,0.87 -3.69351,1.73274 -5.54101,2.58399 -0.9025,0.43375 -1.82117,0.86094 -2.73242,1.27344 -0.51875,0.26249 -1.05352,0.48429 -1.57227,0.74804 l -0.11328,0.0371 -0.44727,0.22461 -0.11328,0.0371 -0.0371,0.0371 0,2.32226 0.0371,-0.0391 0.44922,-0.22461 0.11133,-0.0371 0.44922,-0.22265 c 0.3275,-0.0987 0.90883,-0.465 1.23633,-0.5625 0.90125,-0.435 1.81992,-0.86094 2.73242,-1.27344 1.8025,-0.86125 3.62398,-1.68617 5.42773,-2.54492 1.72625,-0.7825 3.43977,-1.61274 5.16602,-2.39649 0.9025,-0.43 1.82242,-0.85898 2.73242,-1.27148 0.5175,-0.2625 1.05477,-0.4875 1.57227,-0.75 l 0.11132,-0.0371 0.45118,-0.22461 0.11132,-0.0371 0.22461,-0.11133 0.0742,0 0,-0.0391 0.0391,0 0.37305,0.1875 0.11133,0.0391 0.45117,0.22266 c 0.31625,0.0975 0.85516,0.43414 1.16016,0.52539 0.9275,0.44375 1.87039,0.8868 2.80664,1.31055 1.80125,0.8625 3.62648,1.67992 5.42773,2.54492 1.7,0.7725 3.3918,1.58367 5.0918,2.35742 0.9275,0.44375 1.87039,0.8868 2.80664,1.31055 0.495,0.24625 1.0043,0.46094 1.49805,0.71093 0.165,0.0625 0.93718,0.41344 1.08593,0.52344 l 0,-2.32031 c -6.945,-3.25625 -13.90406,-6.48242 -20.85156,-9.73242 l -0.0371,0 z" transform="matrix(0.8,0,0,-0.8,0,595.22)"/>
    </g>
</svg>