<?xml version="1.0" encoding="UTF-8"?>
<svg xmlns="http://www.w3.org/2000/svg" viewBox="0 0 100 100">
    <rect width="100" height="100" x="0" y="0" fill="white" stroke="none"/>
    <path fill="#066807" fill-opacity="1" stroke="none" d="m 0.02029254,50.007469 0,-49.9871888 49.98718846,0 49.987187,0 0,49.9871888 0,49.987309 -49.987187,0 -49.98718846,0 0,-49.987309 z M 97.421726,97.216438 c 0.676268,-0.814823 0.875369,-13.993986 0.720853,-47.715122 L 97.929035,2.9120988 50.214,2.6987889 2.4989612,2.4854688 l 0,47.3775132 c 0,26.057655 0.2478531,47.625331 0.5508204,47.928402 0.3029443,0.302972 21.4503414,0.550749 46.9941834,0.550749 38.193119,0 46.609368,-0.199981 47.377715,-1.125695 z M 11.142876,88.229181 C 10.923383,87.656535 10.840688,70.084985 10.959087,49.181247 l 0.215376,-38.006793 38.833018,0 38.833017,0 0,38.833015 0,38.833055 -38.649251,0.214781 c -30.477947,0.168483 -38.733639,0 -39.048371,-0.826323 z M 63.778332,74.457474 c 2.575256,-0.987807 5.654137,-2.56046 6.841973,-3.494772 2.135397,-1.679742 2.157073,-1.80703 1.927599,-11.327036 l -0.232084,-9.628197 -10.32794,0 -10.327938,0 0,3.718051 0,3.718051 5.363117,0.413161 c 4.349023,0.334969 5.417407,0.698835 5.650246,1.92432 0.652832,3.435977 -0.630426,5.284604 -4.961709,7.147929 -5.798491,2.494366 -11.145975,2.01491 -15.379322,-1.379171 -7.235509,-5.800955 -7.894633,-20.757761 -1.221689,-27.722828 5.521936,-5.763649 16.42601,-4.890122 20.269326,1.623838 1.583178,2.683277 1.769303,2.759121 5.461237,2.225341 5.098783,-0.737171 6.020023,-1.541196 4.960082,-4.329114 -1.416851,-3.72657 -4.785082,-7.508525 -8.41531,-9.448963 -2.937318,-1.570093 -4.719119,-1.847647 -11.725978,-1.826619 -9.047293,0.0273 -12.331021,1.149812 -18.049839,6.171031 -4.753016,4.173179 -6.740535,9.831937 -6.674892,19.004357 0.06156,8.600793 1.433082,12.930186 5.704514,18.006509 6.122995,7.276718 19.783071,9.559704 31.138607,5.204112 z"/>
</svg>