<?xml version="1.0" encoding="UTF-8"?>
<svg xmlns="http://www.w3.org/2000/svg" viewBox="313.28515625 17.39453125 75.44921875 75.44921875">
    <path fill="#F1F0EA" fill-opacity="1" fill-rule="evenodd" stroke="none" d="m 381.00838,72.294858 -5.4,0 0,-5.325 -49.95,0 0,5.325 -5.175,0 0,-22.725 0.525,-0.375 0.375,-0.375 0.75,-0.375 1.5,0 0.9,0.375 0.75,0.375 0.375,0.375 0,9.975 40.125,0 1.125,-0.15 0.9,0 1.125,-0.375 0.975,-0.225 0.675,-0.525 0.975,-0.375 0.75,-0.525 0.75,-0.6 1.05,-1.5 0.375,-0.9 0.375,-0.75 0.375,-0.9 0.225,-1.125 0.15,-0.9 0,-13.874998 0.525,-0.375 1.5,-0.75 1.5,0 0.525,0.375 0.75,0.375 0.6,0.375 0,35.474998 z m -22.2,-14.025 0.675,0 0.6,-0.375 0.375,-0.525 0.15,-0.75 0,-0.6 -0.15,-0.375 -0.225,-0.375 -0.15,-0.525 -1.275,-0.75 -1.5,-0.525 -1.5,-0.6 -1.65,-0.3 -2.625,-0.75 -2.55,-0.6 -2.625,-0.375 -2.55,-0.15 -2.625,0.15 -2.55,0.375 -2.775,0.6 -2.625,0.75 -1.65,0.3 -1.5,0.6 -1.275,0.525 -1.275,0.75 -0.375,0.525 -0.225,0.375 0,1.725 0.375,0.525 0.6,0.375 30.9,0 z m 15.15,-11.625 -0.75,-0.375 -0.9,-0.375 -0.975,0 -1.05,0.375 -1.125,0.375 -1.35,0.675 -2.55,2.25 -1.125,1.125 -0.75,1.125 -0.525,1.275 -0.6,1.125 -0.15,0.9 0,0.9 0.375,0.975 0.375,0.75 0.525,0.525 0.975,0.15 0.9,0 1.125,-0.15 1.125,-0.525 1.275,-0.75 1.125,-0.975 1.05,-1.275 1.35,-1.125 0.9,-1.05 0.75,-1.35 0.525,-1.125 0.225,-1.05 0,-0.975 -0.225,-0.75 -0.525,-0.675"/>
</svg>