<?xml version="1.0" encoding="UTF-8"?>
<svg xmlns="http://www.w3.org/2000/svg" viewBox="226.578125 24.28125 57.296875 56.8515625">
    <path fill="#F1F0EA" fill-opacity="1" fill-rule="evenodd" stroke="none" d="M 234.30078 24.283203 L 234.00195 25.482422 L 234.00195 26.908203 L 233.85156 27.357422 L 233.77734 27.808594 L 233.55078 28.183594 L 233.55078 28.632812 L 233.10156 32.458984 L 232.65234 36.507812 L 232.20117 40.632812 L 231.52734 44.683594 L 231.22656 46.708984 L 230.77734 48.732422 L 230.32617 50.607422 L 229.80078 52.632812 L 229.12695 54.433594 L 228.30078 56.308594 L 227.55078 58.107422 L 226.57617 59.757812 L 226.57617 61.033203 L 227.25195 61.183594 L 227.77734 61.183594 L 228.45117 61.033203 L 228.97656 60.958984 L 230.10156 60.583984 L 231.07617 60.132812 L 232.20117 60.132812 L 232.65234 59.982422 L 233.10156 59.757812 L 233.55078 59.308594 L 234.00195 59.308594 L 233.85156 59.533203 L 233.62695 59.982422 L 233.40234 60.357422 L 233.10156 60.583984 L 232.42578 61.933594 L 231.67578 62.982422 L 230.77734 64.183594 L 229.87695 65.458984 L 229.12695 66.433594 L 228.00195 67.708984 L 227.47656 68.308594 L 227.02734 68.982422 L 226.65234 69.732422 L 226.57617 70.183594 L 227.25195 69.958984 L 227.77734 69.882812 L 228.67578 69.882812 L 229.87695 69.583984 L 231.07617 69.283203 L 232.20117 68.757812 L 233.17578 68.308594 L 234.97656 67.033203 L 236.77734 65.458984 L 238.65234 63.433594 L 239.32617 62.833984 L 239.62695 64.783203 L 240.52734 67.708984 L 240.75195 68.683594 L 240.90234 69.732422 L 240.90234 70.708984 L 241.05078 71.007812 L 241.27734 71.382812 L 241.27734 72.433594 L 241.50195 72.808594 L 241.65234 73.408203 L 241.72656 74.007812 L 241.72656 76.632812 L 241.87695 77.083984 L 242.10156 77.683594 L 227.02734 77.683594 L 227.02734 81.132812 L 283.87695 81.132812 L 283.87695 77.683594 L 279.82617 77.683594 L 279.82617 48.357422 L 283.12695 48.357422 L 283.12695 47.908203 L 281.02734 45.507812 L 279.37695 43.482422 L 277.80078 41.607422 L 276.15234 39.583984 L 274.05078 37.107422 L 271.50195 34.033203 L 268.12695 29.982422 L 263.85156 24.732422 L 263.47656 24.732422 L 261.60156 26.982422 L 259.20117 30.208984 L 256.27734 34.033203 L 253.42578 37.783203 L 250.50195 41.607422 L 248.10156 44.833984 L 246.30078 47.158203 L 245.40234 48.357422 L 249.52734 48.357422 L 249.52734 62.382812 L 248.85156 61.933594 L 248.32617 61.408203 L 247.20117 60.583984 L 246.22656 59.607422 L 245.17578 58.708984 L 244.20117 57.507812 L 243.45117 56.308594 L 242.62695 55.107422 L 242.10156 53.683594 L 241.72656 52.257812 L 242.55078 52.257812 L 245.85156 52.257812 L 246.22656 52.257812 L 247.27734 51.808594 L 248.32617 51.433594 L 248.32617 50.982422 L 247.87695 50.607422 L 247.42578 50.382812 L 246.82617 50.158203 L 246.22656 50.158203 L 245.40234 49.183594 L 244.65234 48.357422 L 243.75195 47.382812 L 243.00195 46.482422 L 242.40234 45.658203 L 241.87695 44.683594 L 240.97656 42.808594 L 240.07617 40.408203 L 239.40234 38.757812 L 238.65234 36.507812 L 237.90234 33.882812 L 237.07617 31.183594 L 236.32617 28.632812 L 235.57617 26.533203 L 235.20117 25.558594 L 234.67578 24.507812 L 234.30078 24.283203 z M 260.17578 54.433594 L 260.62695 54.433594 L 268.80078 54.433594 L 268.80078 77.683594 L 260.62695 77.683594 L 260.17578 77.683594 L 260.17578 54.433594 z M 243.00195 62.382812 L 243.45117 62.382812 L 244.65234 63.208984 L 245.85156 63.808594 L 247.20117 64.183594 L 248.77734 64.482422 L 249.07617 64.482422 L 249.07617 77.683594 L 248.17578 77.533203 L 247.27734 77.458984 L 246.30078 77.308594 L 245.40234 77.232422 L 245.10156 75.808594 L 244.65234 73.857422 L 244.20117 72.132812 L 243.75195 71.158203 L 243.75195 69.732422 L 243.60156 68.982422 L 243.45117 68.083984 L 243.07617 66.732422 L 243.00195 65.908203 L 243.00195 62.382812 z "/>
</svg>