<?xml version="1.0" encoding="UTF-8"?>
<svg xmlns="http://www.w3.org/2000/svg" viewBox="90.58203125 72.26171875 315.25 310.1171875">
    <path fill="#325928" fill-opacity="1" stroke="none" d="m 383.72598,348.46487 c 7.46625,-7.1775 14.64375,-14.355 22.1075,-21.82125 l -15.215,9.19 c -9.18875,6.0275 -17.8025,8.89875 -24.98,8.89875 -1.435,0 -3.44625,0 -6.31625,-0.57375 -10.33625,0 -28.99875,-5.455 -55.7,-16.365 -26.98875,-10.91125 -46.5125,-16.07875 -58.57125,-15.50375 -7.1775,0.28625 -13.78125,1.72125 -20.385,4.01875 -18.37625,9.76125 -32.1575,17.80125 -41.0575,24.11875 -8.9,-12.9225 -14.35625,-20.1 -16.07875,-21.82125 -5.74125,-5.455 -13.49375,-9.18875 -23.54375,-11.485 8.3275,0 19.525,-8.90125 33.5925,-26.70125 14.35625,-17.515 21.53375,-31.00875 21.53375,-39.90875 l 0,-128.34 c 0,-12.06 11.485,-25.553745 34.45375,-39.908745 -9.7625,0 -25.5525,6.02875 -47.08625,18.0875 -22.96875,12.919995 -34.45375,23.542495 -34.45375,31.582495 l 0,148.725 c 0,12.6325 -7.7525,26.1275 -22.96875,41.345 -2.58375,2.58375 -15.505,13.49375 -38.47375,32.15625 7.465,4.59375 15.50375,10.33625 23.25625,17.51375 3.7325,3.1575 10.33625,10.04875 20.385,20.6725 2.87125,0 11.1975,-5.7425 25.84,-17.80125 18.95,-15.2175 33.01875,-22.96875 42.49375,-22.96875 8.32625,0 28.9975,7.1775 62.3025,21.53375 31.295,13.49375 48.81,19.81001 52.25625,19.23625 19.81,-3.73374 41.9175,-15.2175 66.60875,-33.88 M 365.63848,95.231125 c -0.575,-1.7225 -9.1875,-5.45625 -25.84,-10.91125 -15.21625,-5.455 -25.26625,-8.32625 -29.5725,-8.9 -5.74375,-0.57375 -21.24625,7.7525 -46.51375,25.266255 -25.5525,17.22624 -38.185,28.13749 -38.185,32.73124 l 0,120.5875 c 0,10.04875 -2.2975,18.94875 -6.60375,26.415 -5.16875,9.18751 -12.05875,14.6425 -21.24625,16.07751 0.86125,0.2875 1.7225,0.2875 2.58375,0.2875 8.03875,0 21.53375,-8.90125 40.48375,-26.415 21.245,-20.0975 31.86875,-35.0275 31.86875,-44.5025 l 0,-104.79625 c 0,-2.58375 1.43625,-3.7325 4.3075,-3.7325 2.58375,0 9.76125,2.58375 21.82,7.7525 10.91,4.59375 16.6525,6.6025 17.51375,6.02875 33.88,-21.5325 50.245,-33.592505 49.38375,-35.888755"/>
</svg>