<?xml version="1.0" encoding="UTF-8"?>
<!DOCTYPE svg PUBLIC "-//W3C//DTD SVG 1.1//EN" "http://www.w3.org/Graphics/SVG/1.1/DTD/svg11.dtd">
<svg xmlns="http://www.w3.org/2000/svg" xmlns:xlink="http://www.w3.org/1999/xlink" id="svg9102" width="1400" height="1000" version="1.1" viewBox="0 0 1400 1000">
    <metadata id="metadata9107"/>
    <defs>
        <symbol id="noSym" viewBox="0 0 100 100">
            <rect width="90" height="90" x="5" y="5" fill="yellow" stroke="#008754" stroke-width="5" rx="15" ry="15"/>
            <line x1="25" x2="75" y1="25" y2="75" stroke="red" stroke-width="10"/>
            <line x1="25" x2="75" y1="75" y2="25" stroke="red" stroke-width="10"/>
        </symbol>
        <symbol id="L" viewBox="90.58203125 72.26171875 315.25 310.1171875">
            <path id="path13" fill="#325928" fill-opacity="1" stroke="none" d="m 383.72598,348.46487 c 7.46625,-7.1775 14.64375,-14.355 22.1075,-21.82125 l -15.215,9.19 c -9.18875,6.0275 -17.8025,8.89875 -24.98,8.89875 -1.435,0 -3.44625,0 -6.31625,-0.57375 -10.33625,0 -28.99875,-5.455 -55.7,-16.365 -26.98875,-10.91125 -46.5125,-16.07875 -58.57125,-15.50375 -7.1775,0.28625 -13.78125,1.72125 -20.385,4.01875 -18.37625,9.76125 -32.1575,17.80125 -41.0575,24.11875 -8.9,-12.9225 -14.35625,-20.1 -16.07875,-21.82125 -5.74125,-5.455 -13.49375,-9.18875 -23.54375,-11.485 8.3275,0 19.525,-8.90125 33.5925,-26.70125 14.35625,-17.515 21.53375,-31.00875 21.53375,-39.90875 l 0,-128.34 c 0,-12.06 11.485,-25.553745 34.45375,-39.908745 -9.7625,0 -25.5525,6.02875 -47.08625,18.0875 -22.96875,12.919995 -34.45375,23.542495 -34.45375,31.582495 l 0,148.725 c 0,12.6325 -7.7525,26.1275 -22.96875,41.345 -2.58375,2.58375 -15.505,13.49375 -38.47375,32.15625 7.465,4.59375 15.50375,10.33625 23.25625,17.51375 3.7325,3.1575 10.33625,10.04875 20.385,20.6725 2.87125,0 11.1975,-5.7425 25.84,-17.80125 18.95,-15.2175 33.01875,-22.96875 42.49375,-22.96875 8.32625,0 28.9975,7.1775 62.3025,21.53375 31.295,13.49375 48.81,19.81001 52.25625,19.23625 19.81,-3.73374 41.9175,-15.2175 66.60875,-33.88 M 365.63848,95.231125 c -0.575,-1.7225 -9.1875,-5.45625 -25.84,-10.91125 -15.21625,-5.455 -25.26625,-8.32625 -29.5725,-8.9 -5.74375,-0.57375 -21.24625,7.7525 -46.51375,25.266255 -25.5525,17.22624 -38.185,28.13749 -38.185,32.73124 l 0,120.5875 c 0,10.04875 -2.2975,18.94875 -6.60375,26.415 -5.16875,9.18751 -12.05875,14.6425 -21.24625,16.07751 0.86125,0.2875 1.7225,0.2875 2.58375,0.2875 8.03875,0 21.53375,-8.90125 40.48375,-26.415 21.245,-20.0975 31.86875,-35.0275 31.86875,-44.5025 l 0,-104.79625 c 0,-2.58375 1.43625,-3.7325 4.3075,-3.7325 2.58375,0 9.76125,2.58375 21.82,7.7525 10.91,4.59375 16.6525,6.6025 17.51375,6.02875 33.88,-21.5325 50.245,-33.592505 49.38375,-35.888755"/>
        </symbol>
        <symbol id="Geo-Pfad" viewBox="0 0 100 100">
            <rect width="100" height="100" x="0" y="0" fill="white" stroke="none"/>
            <path fill="#066807" fill-opacity="1" stroke="none" d="m 0.02029254,50.007469 0,-49.9871888 49.98718846,0 49.987187,0 0,49.9871888 0,49.987309 -49.987187,0 -49.98718846,0 0,-49.987309 z M 97.421726,97.216438 c 0.676268,-0.814823 0.875369,-13.993986 0.720853,-47.715122 L 97.929035,2.9120988 50.214,2.6987889 2.4989612,2.4854688 l 0,47.3775132 c 0,26.057655 0.2478531,47.625331 0.5508204,47.928402 0.3029443,0.302972 21.4503414,0.550749 46.9941834,0.550749 38.193119,0 46.609368,-0.199981 47.377715,-1.125695 z M 11.142876,88.229181 C 10.923383,87.656535 10.840688,70.084985 10.959087,49.181247 l 0.215376,-38.006793 38.833018,0 38.833017,0 0,38.833015 0,38.833055 -38.649251,0.214781 c -30.477947,0.168483 -38.733639,0 -39.048371,-0.826323 z M 63.778332,74.457474 c 2.575256,-0.987807 5.654137,-2.56046 6.841973,-3.494772 2.135397,-1.679742 2.157073,-1.80703 1.927599,-11.327036 l -0.232084,-9.628197 -10.32794,0 -10.327938,0 0,3.718051 0,3.718051 5.363117,0.413161 c 4.349023,0.334969 5.417407,0.698835 5.650246,1.92432 0.652832,3.435977 -0.630426,5.284604 -4.961709,7.147929 -5.798491,2.494366 -11.145975,2.01491 -15.379322,-1.379171 -7.235509,-5.800955 -7.894633,-20.757761 -1.221689,-27.722828 5.521936,-5.763649 16.42601,-4.890122 20.269326,1.623838 1.583178,2.683277 1.769303,2.759121 5.461237,2.225341 5.098783,-0.737171 6.020023,-1.541196 4.960082,-4.329114 -1.416851,-3.72657 -4.785082,-7.508525 -8.41531,-9.448963 -2.937318,-1.570093 -4.719119,-1.847647 -11.725978,-1.826619 -9.047293,0.0273 -12.331021,1.149812 -18.049839,6.171031 -4.753016,4.173179 -6.740535,9.831937 -6.674892,19.004357 0.06156,8.600793 1.433082,12.930186 5.704514,18.006509 6.122995,7.276718 19.783071,9.559704 31.138607,5.204112 z"/>
        </symbol>
        <symbol id="Schablone-Lutherweg" viewBox="0 0 100 100">
            <rect id="rect16" width="100" height="100" x="0" y="0" fill="white" stroke="none"/>
            <use id="use18" width="80" height="80" x="10" y="10" xlink:href="#L"/>
        </symbol>
        <symbol id="Schrift-Lutherweg" viewBox="89.3046875 417.27734375 319.2265625 57.1328125">
            <path id="path21" fill="#000000" fill-opacity="1" stroke="none" d="m 108.73948,425.81837 0,17.375 c 0,1.4725 -0.295,2.65125 -1.17875,3.82875 -0.58875,1.4725 -1.47125,2.0625 -2.945,2.35625 l 0.295,0 c 1.17875,0 3.23875,-1.1775 5.89,-3.82875 2.945,-2.94375 4.4175,-5.005 4.4175,-6.18375 l 0,-15.3125 c 0,-0.295 0.29375,-0.295 0.58875,-0.295 0.58875,0 1.4725,0.295 3.24,0.88375 1.4725,0.88375 2.355,1.17625 2.355,0.88375 5.00625,-2.945 7.36375,-4.7125 7.06875,-5.0075 0,-0.29375 -1.17875,-0.88375 -3.53375,-1.4725 -2.3575,-0.88375 -3.535,-1.4725 -4.4175,-1.4725 -0.59,0 -2.94625,1.18 -6.48,3.82875 -3.53375,2.35625 -5.3,3.8275 -5.3,4.41625 m -13.84125,25.915 c -0.295,0.29625 -2.06125,1.7675 -5.595,4.42 1.1775,0.88125 2.355,1.47125 3.53375,2.64875 0.295,0.295 1.4725,1.47125 2.945,2.94375 0.29375,0 1.4725,-0.88125 3.53375,-2.64875 2.65,-2.0625 4.71125,-3.24 5.89,-3.24 1.1775,0 4.41625,1.1775 9.12875,3.24 4.4175,1.7675 6.77375,2.64875 7.3625,2.64875 2.65,-0.58875 5.89,-2.06 9.4225,-5.005 1.17875,-0.88375 2.0625,-2.0625 3.24,-2.94375 l -2.35625,1.17625 c -1.1775,0.88375 -2.355,1.4725 -3.5325,1.4725 0,0 -0.295,-0.2925 -0.88375,-0.2925 -1.47375,0 -4.12375,-0.59125 -7.9525,-2.35625 -3.8275,-1.4725 -6.4775,-2.35625 -8.245,-2.06375 -0.88375,0 -2.06125,0.29625 -2.945,0.59125 -2.65,1.17625 -4.4175,2.35375 -5.88875,3.2375 -1.17875,-1.765 -2.0625,-2.64875 -2.0625,-2.945 -0.88375,-0.88375 -2.06125,-1.47125 -3.53375,-1.7675 1.17875,0 2.945,-1.17625 5.00625,-3.8275 1.7675,-2.35625 2.945,-4.41625 2.945,-5.59625 l 0,-18.55125 c 0,-1.76625 1.4725,-3.53375 4.71125,-5.59625 -1.1775,0 -3.5325,0.88375 -6.47875,2.65125 -3.23875,1.7675 -5.005,3.24 -5.005,4.41625 l 0,21.20375 c 0,2.06375 -1.17875,3.82875 -3.24,6.18375 m 41.52375,-16.49125 c 1.76625,2.0625 2.65,3.24 2.65,3.535 l 0,16.19625 c 0,1.18 1.1775,2.65125 3.23875,4.41875 1.7675,1.765 3.535,2.64875 4.71125,2.35375 3.535,-0.88125 7.06875,-2.94375 10.3075,-6.47625 0.88375,1.765 1.4725,2.64875 1.4725,2.94375 1.17875,2.06 1.7675,3.24 2.35625,3.5325 0,0 2.65,-1.765 7.6575,-5.5925 -0.295,0 -0.59,-0.29625 -1.17875,-0.88375 -0.59,-0.59125 -0.88375,-0.885 -0.88375,-1.18 l 0,-19.14 c 0,-0.59125 -0.88375,-1.4725 -2.06125,-2.945 -1.4725,-1.17875 -2.35625,-2.0625 -2.65,-2.0625 -0.88375,0 -2.06125,0.88375 -4.12375,2.35625 -2.06125,1.47125 -2.94375,2.355 -2.94375,2.94375 l 0.29375,0.295 1.7675,2.06125 c 0.58875,0.59 0.8825,1.4725 0.8825,2.0625 l 0,14.13625 c 0,0.5875 -0.8825,1.4725 -2.94375,2.06 -1.7675,0.88375 -2.945,1.1775 -3.535,0.88375 -2.355,-1.17875 -3.53375,-2.0625 -3.53375,-3.24 l 0,-18.8475 c 0,-0.5875 -0.58875,-1.47125 -1.76625,-2.64875 -1.1775,-1.17875 -1.76625,-2.0625 -2.35625,-2.0625 -0.58875,0 -2.06125,0.88375 -4.4175,2.35625 -2.06,1.47125 -3.23875,2.355 -2.94375,2.94375 m 36.51625,1.7675 c 1.4725,-0.2925 2.945,-0.2925 4.4175,-0.2925 0.8825,0 1.47125,0 1.47125,0.2925 l 0,17.375 c 0,1.4725 0.885,2.945 2.65125,4.7125 1.4725,1.4725 3.23875,2.35625 4.71125,2.64875 0.295,0 2.35625,-1.765 6.185,-5.5925 -0.88375,-0.29625 -1.7675,-1.18 -2.945,-2.35625 -1.1775,-1.4725 -1.7675,-2.65125 -1.7675,-3.535 l 0,-13.2525 c 0,-0.2925 0.295,-0.58875 0.88375,-0.58875 l 0.88375,0 c 1.47125,0 3.24,-1.7675 5.89,-5.89 l -3.53375,0 c -1.17875,0.295 -2.0625,0.295 -2.94625,0.295 -0.29375,0 -0.5875,0 -1.1775,-0.295 l 0,-5.59375 c -2.945,0.58875 -5.595,2.64875 -8.54,5.59375 -1.76625,1.17875 -3.23875,2.0625 -3.82875,2.65125 -1.1775,0.88375 -1.7675,2.06 -2.355,3.8275 m 32.6875,-15.6075 c -2.06125,0.5875 -3.53375,1.17875 -3.8275,1.4725 0.29375,1.17875 0.29375,2.355 0.29375,3.535 l 0,35.33625 8.835,-3.5325 0,-21.20375 c 0.88375,-0.58875 1.4725,-0.88375 2.355,-0.58875 2.65125,0.29625 5.0075,2.06125 7.06875,5.30125 2.355,2.94375 3.53375,5.595 3.53375,8.54 0,3.8275 -2.35625,7.65625 -6.7725,11.19125 l 4.71,-2.35625 c 1.76875,-0.88375 3.535,-1.7675 5.0075,-2.65125 0.34625,-0.34625 0.71625,-0.60375 1.12375,-0.8675 -0.83375,0.275 -1.13125,0.27875 -1.41875,0.27875 -0.295,0 -0.295,0 -0.58875,-0.295 2.35625,-3.2375 3.82875,-5.005 3.82875,-5.005 1.1775,-2.0625 2.06125,-4.12375 2.06125,-5.89125 0,-1.17625 -0.58875,-2.94375 -1.1775,-5.005 -0.59,-1.7675 -2.0625,-3.8275 -4.41875,-5.89125 -2.355,-2.355 -4.4175,-3.5325 -6.18375,-3.5325 -0.5875,0.29375 -2.06125,0.88375 -4.41625,2.64875 -1.17875,0.59125 -2.94625,1.7675 -4.7125,2.9475 l 0,-12.66375 c 0,-1.7675 -0.295,-2.945 -0.88375,-2.945 -0.88375,0 -2.355,0.29375 -4.4175,1.1775 m 23.265,33.57126 c -0.3625,0.24249 -0.65375,0.42125 -0.9375,0.60499 0.02,-0.006 0.0325,-0.009 0.055,-0.0162 l 0.8825,-0.58875 z m 7.3625,-8.54001 c -0.295,4.12376 1.47125,7.95126 5.00625,11.19126 2.945,2.94499 5.3,4.12124 6.47875,4.12124 l 0.29375,0 c 0.88375,-0.2925 2.35625,-1.17625 4.1225,-2.35375 l 4.7125,-2.94625 c -0.29375,0.295 -0.58875,0.295 -0.8825,0.295 -1.47375,0 -3.53375,-0.88375 -5.59625,-3.24 -2.06125,-1.7675 -3.53375,-3.23875 -4.7125,-5.00625 0.59,0.88375 1.4725,1.47125 2.65125,1.47125 0.88375,0 2.06125,-0.2925 3.24,-0.88125 2.355,-1.17875 4.71125,-3.24 6.4775,-5.595 1.7675,-2.06375 2.35625,-3.82875 2.35625,-5.30125 0,-0.59 0,-1.17875 -0.29375,-1.7675 0,-0.295 -1.17875,-1.7675 -3.24,-3.535 -2.06,-2.06 -3.53375,-2.94375 -3.82875,-2.94375 -0.88375,0 -2.65,0.88375 -5.595,2.65126 -2.65,1.17625 -4.41625,2.35624 -5.3,2.94374 -3.82875,2.945 -5.89,6.48 -5.89,10.89625 m 7.65625,-4.41624 c 0,-3.24001 0.58875,-5.59625 1.76625,-6.775 4.7125,4.12375 7.06875,6.47999 6.775,7.0675 -0.29625,0.29625 -2.65125,2.06374 -7.06875,5.30375 -0.88375,0 -1.4725,-1.76875 -1.4725,-5.59625 m 22.38125,-9.71875 -2.94375,2.65125 c 1.76625,0.88375 2.65,2.94374 2.65,6.18374 l 0,20.32001 8.83375,-3.535 0,-22.38125 c 0.59,0.29625 0.88375,0.29625 1.4725,0.58875 2.65125,2.94499 4.12375,5.00749 4.4175,6.18375 0,0.29625 0.29375,1.18 0.58875,2.65125 l 0.58875,-3.23876 c 2.0625,-1.76749 3.53375,-2.65125 3.82875,-2.94499 1.7675,-1.4725 2.65,-2.06001 3.24,-2.35625 -0.59,-0.88375 -1.4725,-1.7675 -2.65,-3.23875 -1.17875,-1.4725 -2.0625,-2.65125 -2.65125,-3.24 -0.29375,-0.29376 -1.7675,0.58875 -4.71125,2.35625 -1.17875,0.58749 -2.65125,1.17874 -4.12375,1.76749 0,-0.58875 -0.29375,-1.18 -1.4725,-2.35624 -1.1775,-1.17876 -2.06,-1.7675 -2.65,-1.7675 -0.29375,0 -1.7675,0.58875 -4.4175,2.35625 m 24.7375,3.535 1.76625,-0.59126 c 1.47375,0 3.53375,2.65125 5.89,8.24751 2.65,6.7725 4.7125,11.18875 5.59625,13.25125 0.5875,1.4725 1.47125,3.24 2.355,5.00499 4.7125,-3.24 7.06875,-5.00499 7.06875,-5.3 -0.59,-2.35625 -1.47375,-4.7125 -2.65,-7.0675 l -3.24,-7.36125 c -1.7675,-4.12375 -2.65125,-6.48 -2.65125,-6.775 0,-0.58875 0.88375,-0.88374 2.35625,-0.88374 2.06125,0 4.1225,1.475 5.595,4.41874 0.88375,1.17751 1.4725,2.945 2.35625,5.005 3.53375,7.65875 6.18375,13.84251 7.95125,17.96375 3.53375,-2.64875 6.7725,-5.5925 9.7175,-8.245 7.3625,-6.77249 11.19125,-11.77875 11.19125,-14.72375 0,-2.94374 -0.88375,-5.3 -2.65125,-7.06749 -2.06125,-2.35625 -4.71125,-3.5325 -7.65625,-3.5325 -1.7675,0 -3.82875,0.88125 -5.88875,2.35375 -1.4725,1.17875 -2.94625,2.65125 -5.0075,4.71125 -1.76625,-2.06 -2.65,-3.5325 -2.945,-3.82751 -1.47125,-1.47249 -2.65,-2.35624 -4.1225,-2.35624 -1.1775,0 -5.005,1.76749 -11.485,5.595 -0.88375,-1.7675 -1.4725,-2.64875 -1.4725,-2.94375 -0.88375,-1.17875 -1.7675,-1.7675 -2.945,-1.7675 -1.17875,-0.29375 -4.1225,1.7675 -9.12875,5.89125 m 32.39375,0 c 0.88375,-1.475 2.06125,-2.06375 4.1225,-2.06375 1.4725,0 2.945,0.58875 4.4175,1.4725 3.24,2.35625 4.7125,5.30249 4.7125,9.13124 0,2.64876 -1.17875,5.005 -3.24,7.36001 -1.17875,0.88375 -2.35625,1.7675 -3.24,2.35625 -0.2925,-0.58875 -0.88375,-2.64876 -2.06,-5.595 l -4.7125,-12.66125 z m 23.85375,10.6 c -0.29375,4.12375 1.4725,7.95125 5.00625,11.19125 3.24,2.945 5.3,4.12125 6.47875,4.12125 l 0.58875,0 c 0.58875,-0.2925 2.06125,-1.17625 3.82875,-2.35375 l 4.71125,-2.94626 c -0.295,0.29501 -0.58875,0.29501 -0.88375,0.29501 -1.47125,0 -3.24,-0.88376 -5.595,-3.24001 -2.06125,-1.76749 -3.5325,-3.23875 -4.7125,-5.00624 0.88375,0.88374 1.7675,1.47124 2.65125,1.47124 0.8825,0 2.06125,-0.2925 3.24,-0.88125 2.65,-1.17875 4.71125,-3.24 6.7725,-5.595 1.4725,-2.06375 2.06125,-3.82874 2.06125,-5.30125 0,-0.59 0,-1.17875 -0.29375,-1.7675 0,-0.295 -1.17875,-1.7675 -3.24,-3.535 -2.06125,-2.06 -3.23875,-2.94375 -3.8275,-2.94375 -0.88375,0 -2.65125,0.88375 -5.30125,2.65126 -2.945,1.17625 -4.7125,2.35624 -5.595,2.94374 -3.8275,2.945 -5.89,6.48 -5.89,10.89625 m 7.65625,-4.41624 c 0,-3.24001 0.59,-5.59625 1.76625,-6.775 4.7125,4.12375 7.0675,6.47999 6.77375,7.0675 -0.29375,0.29625 -2.65,2.06374 -7.0675,5.30375 -0.8825,0 -1.4725,-1.76875 -1.4725,-5.59625 m 18.25875,25.32499 c 0.295,1.17876 0.88375,2.0625 1.7675,2.94376 0.5875,0.29625 1.47125,0.88374 2.94375,1.76749 2.65,1.7675 5.00625,2.35625 7.3625,2.35625 1.7675,0 3.535,-0.295 5.595,-1.4725 0.295,0 2.0625,-1.17625 5.00625,-2.94374 3.82875,-2.35626 6.18375,-3.82876 7.3625,-4.71251 2.65125,-2.35499 4.12375,-4.71125 4.12375,-7.0675 0,-0.88375 -0.59,-2.94374 -1.7675,-5.88875 -1.1775,-2.94625 -2.0625,-5.0075 -2.0625,-6.48 0,-2.94375 0.29625,-5.89 0.885,-9.1275 0.8825,-4.41875 2.355,-6.775 4.1225,-6.775 l -15.9025,0 c -1.4725,0.295 -3.53375,0.88375 -5.595,2.06251 -2.35625,1.1775 -4.12375,2.35375 -5.59625,3.23749 -1.4725,1.475 -2.94375,3.24 -4.1225,5.89125 -1.17875,2.64875 -2.06125,5.005 -2.06125,6.77251 0,5.59499 2.65,10.01249 7.95,13.54749 0,-0.29625 -0.8825,0 -2.65,0.58751 -5.3,1.47249 -7.65625,3.24 -7.36125,5.30124 m 25.915,-32.39249 -2.65,5.005 c -0.88375,1.47125 -1.47375,3.535 -1.47375,5.59499 0,0.295 -0.29375,0.58875 -0.29375,1.17876 0,2.06124 0.58875,5.005 1.4725,8.245 -0.88375,0.88374 -1.7675,1.17999 -2.65125,1.17999 -1.47125,0 -2.94375,-0.59124 -4.71,-2.35624 -3.535,-2.9475 -5.0075,-6.48 -5.0075,-10.015 0,-4.12125 0.58875,-7.06501 1.4725,-8.8325 l 13.84125,0 z m -16.78625,27.97625 c 0,0 1.4725,-0.885 4.7125,-2.35625 l 9.42375,-4.71251 c 2.06,2.64876 2.94375,3.82875 2.94375,3.82875 1.17875,1.47125 1.7675,2.94376 1.7675,4.41625 0,1.7675 -1.4725,3.24 -4.4175,4.41875 -0.88375,0.2925 -1.7675,0.58875 -2.945,0.58875 -1.4725,0 -3.82875,-0.88375 -6.7725,-2.06125 -3.53375,-1.47375 -5.00625,-2.65125 -4.7125,-4.12249"/>
        </symbol>
        <symbol id="Rundweg" viewBox="0 0 120 100">
            <path fill="#E49E00" stroke="none" d="M 119 99 l -60 0 a 49 49 0 1 1 49 -49 l 10 0 -20 25 -20 -25 11 0 a 30 30 0 1 0 -30 30 l 60 0 z"/>
        </symbol>
        <symbol id="Wegemarke-Lutherweg" viewBox="0 0 100 100">
            <rect id="rect24" width="100" height="100" x="0" y="0" fill="white" stroke="none"/>
            <rect id="rect26" width="91" height="91" x="4.5" y="4.5" fill="white" stroke="#325928" stroke-width="2" rx="7" ry="7"/>
            <use id="use28" width="68" height="68" x="16" y="10" xlink:href="#L"/>
            <use id="use30" width="68" height="20" x="14" y="76" xlink:href="#Schrift-Lutherweg"/>
        </symbol>
        <symbol id="Hauptweg-Quadrat" viewBox="0 0 100 100">
            <rect id="rect33" width="98" height="98" x="1" y="1" fill="white" stroke="#000000" stroke-width="2"/>
            <rect id="rect35" width="50" height="50" x="25" y="25" fill="#004f7c" stroke="none" stroke-width="2"/>
        </symbol>
        <symbol id="Hauptweg-Dreieck" viewBox="0 0 100 100">
            <rect id="rect38" width="98" height="98" x="1" y="1" fill="white" stroke="#000000" stroke-width="2"/>
            <path id="path40" fill="#004f7c" stroke="none" d="M 50 20 l -30 55 60 0 z"/>
        </symbol>
        <symbol id="Hauptweg-Kreis" viewBox="0 0 100 100">
            <rect id="rect43" width="98" height="98" x="1" y="1" fill="white" stroke="#000000" stroke-width="2"/>
            <circle id="circle45" cx="50" cy="50" r="25" fill="#004f7c" stroke="none"/>
        </symbol>
        <symbol id="Hauptweg-Kreuz" viewBox="0 0 100 100">
            <rect id="rect48" width="98" height="98" x="1" y="1" fill="white" stroke="#000000" stroke-width="2"/>
            <path id="path50" fill="none" stroke="#004f7c" stroke-width="10" d="M 20 20 l 60 60 m -60 0 l 60 -60"/>
        </symbol>
        <symbol id="Hauptweg-Balken" viewBox="0 0 100 100">
            <rect id="rect53" width="98" height="98" x="1" y="1" fill="white" stroke="#000000" stroke-width="2"/>
            <rect id="rect55" width="96" height="33.33" x="2" y="33.33" fill="#004f7c" stroke="none"/>
        </symbol>
        <symbol id="Gebietsweg-Quadrat" viewBox="0 0 100 100">
            <rect id="rect58" width="98" height="98" x="1" y="1" fill="white" stroke="#000000" stroke-width="2"/>
            <rect id="rect60" width="50" height="50" x="25" y="25" fill="#ed192e" stroke="none" stroke-width="2"/>
        </symbol>
        <symbol id="Gebietsweg-Dreieck" viewBox="0 0 100 100">
            <rect id="rect63" width="98" height="98" x="1" y="1" fill="white" stroke="#000000" stroke-width="2"/>
            <path id="path65" fill="#ed192e" stroke="none" d="M 50 20 l -30 55 60 0 z"/>
        </symbol>
        <symbol id="Gebietsweg-Kreis" viewBox="0 0 100 100">
            <rect id="rect68" width="98" height="98" x="1" y="1" fill="white" stroke="#000000" stroke-width="2"/>
            <circle id="circle70" cx="50" cy="50" r="25" fill="#ed192e" stroke="none"/>
        </symbol>
        <symbol id="Gebietsweg-Kreuz" viewBox="0 0 100 100">
            <rect id="rect73" width="98" height="98" x="1" y="1" fill="white" stroke="#000000" stroke-width="2"/>
            <path id="path75" fill="none" stroke="#ed192e" stroke-width="10" d="M 20 20 l 60 60 m -60 0 l 60 -60"/>
        </symbol>
        <symbol id="Gebietsweg-Balken" viewBox="0 0 100 100">
            <rect id="rect78" width="98" height="98" x="1" y="1" fill="white" stroke="#000000" stroke-width="2"/>
            <rect id="rect80" width="96" height="33.33" x="2" y="33.33" fill="#ed192e" stroke="none"/>
        </symbol>
        <symbol id="Ortsweg-Quadrat" viewBox="0 0 100 100">
            <rect id="rect83" width="98" height="98" x="1" y="1" fill="white" stroke="#000000" stroke-width="2"/>
            <rect id="rect85" width="50" height="50" x="25" y="25" fill="#325928" stroke="none" stroke-width="2"/>
        </symbol>
        <symbol id="Ortsweg-Dreieck" viewBox="0 0 100 100">
            <rect id="rect88" width="98" height="98" x="1" y="1" fill="white" stroke="#000000" stroke-width="2"/>
            <path id="path90" fill="#325928" stroke="none" d="M 50 20 l -30 55 60 0 z"/>
        </symbol>
        <symbol id="Ortsweg-Kreis" viewBox="0 0 100 100">
            <rect id="rect93" width="98" height="98" x="1" y="1" fill="white" stroke="#000000" stroke-width="2"/>
            <circle id="circle95" cx="50" cy="50" r="25" fill="#325928" stroke="none"/>
        </symbol>
        <symbol id="Ortsweg-Kreuz" viewBox="0 0 100 100">
            <rect id="rect98" width="98" height="98" x="1" y="1" fill="white" stroke="#000000" stroke-width="2"/>
            <path id="path100" fill="none" stroke="#325928" stroke-width="10" d="M 20 20 l 60 60 m -60 0 l 60 -60"/>
        </symbol>
        <symbol id="Ortsweg-Balken" viewBox="0 0 100 100">
            <rect id="rect103" width="98" height="98" x="1" y="1" fill="white" stroke="#000000" stroke-width="2"/>
            <rect id="rect105" width="96" height="33.33" x="2" y="33.33" fill="#325928" stroke="none"/>
        </symbol>
        <symbol id="Rundweg-Quadrat" viewBox="0 0 100 100">
            <rect id="rect108" width="98" height="98" x="1" y="1" fill="white" stroke="#000000" stroke-width="2"/>
            <rect id="rect110" width="50" height="50" x="25" y="25" fill="#f1dd38" stroke="none" stroke-width="2"/>
        </symbol>
        <symbol id="Rundweg-Dreieck" viewBox="0 0 100 100">
            <rect id="rect113" width="98" height="98" x="1" y="1" fill="white" stroke="#000000" stroke-width="2"/>
            <path id="path115" fill="#f1dd38" stroke="none" d="M 50 20 l -30 55 60 0 z"/>
        </symbol>
        <symbol id="Rundweg-Kreis" viewBox="0 0 100 100">
            <rect id="rect118" width="98" height="98" x="1" y="1" fill="white" stroke="#000000" stroke-width="2"/>
            <circle id="circle120" cx="50" cy="50" r="25" fill="#f1dd38" stroke="none"/>
        </symbol>
        <symbol id="Rundweg-Kreuz" viewBox="0 0 100 100">
            <rect id="rect123" width="98" height="98" x="1" y="1" fill="white" stroke="#000000" stroke-width="2"/>
            <path id="path125" fill="none" stroke="#f1dd38" stroke-width="10" d="M 20 20 l 60 60 m -60 0 l 60 -60"/>
        </symbol>
        <symbol id="Rundweg-Balken" viewBox="0 0 100 100">
            <rect id="rect128" width="98" height="98" x="1" y="1" fill="white" stroke="#000000" stroke-width="2"/>
            <rect id="rect130" width="96" height="33.33" x="2" y="33.33" fill="#f1dd38" stroke="none"/>
        </symbol>
        <symbol id="Naturlehrpfad" viewBox="0 0 100 100">
            <rect width="98" height="98" x="1" y="1" fill="white" stroke="#000000" stroke-width="2"/>
            <path fill="#325928" stroke="none" stroke-width="10" d="M 2 2 l 0 20 76 76 20 0 0 -20 -76 -76 z"/>
        </symbol>
        <symbol id="Ortsweg-Diagonal" viewBox="0 0 100 100">
            <rect width="98" height="98" x="1" y="1" fill="white" stroke="#000000" stroke-width="2"/>
            <path fill="#325928" stroke="none" stroke-width="10" d="M 2 2 l 0 20 76 76 20 0 0 -20 -76 -76 z"/>
        </symbol>
        <symbol id="Ortsweg-Diagonal-Kreuz" viewBox="0 0 100 100">
            <rect width="98" height="98" x="1" y="1" fill="white" stroke="#000000" stroke-width="2"/>
            <path id="path135" fill="#325928" stroke="none" stroke-width="10" d="M 2 2 l 0 20 76 76 20 0 0 -20 -76 -76 z"/>
            <path fill="#325928" stroke="none" stroke-width="10" d="M 98 2 l 0 20 -76 76 -20 0 0 -20 76 -76 z"/>
        </symbol>
        <symbol id="Rundweg-Diagonal" viewBox="0 0 100 100">
            <rect width="98" height="98" x="1" y="1" fill="white" stroke="#000000" stroke-width="2"/>
            <path fill="#f1dd38" stroke="none" stroke-width="10" d="M 2 2 l 0 20 76 76 20 0 0 -20 -76 -76 z"/>
        </symbol>
        <symbol id="Rundweg-Diagonal-Kreuz" viewBox="0 0 100 100">
            <rect width="98" height="98" x="1" y="1" fill="white" stroke="#000000" stroke-width="2"/>
            <path fill="#f1dd38" stroke="none" stroke-width="10" d="M 2 2 l 0 20 76 76 20 0 0 -20 -76 -76 z"/>
            <path fill="#f1dd38" stroke="none" stroke-width="10" d="M 98 2 l 0 20 -76 76 -20 0 0 -20 76 -76 z"/>
        </symbol>
        <symbol id="Rundweg-Verbindungsweg" viewBox="0 0 100 100">
            <rect width="98" height="98" x="1" y="1" fill="white" stroke="#000000" stroke-width="2"/>
            <path fill="#f1dd38" stroke="none" stroke-width="10" d="M 20 40 l 0 20 20 0 0 20 20 0 0 -20 20 0 0 -20 -20 0 0 -20 -20 0 0 20 z"/>
        </symbol>
        <symbol id="Ortsweg-Verbindungsweg" viewBox="0 0 100 100">
            <rect width="98" height="98" x="1" y="1" fill="white" stroke="#000000" stroke-width="2"/>
            <path fill="#325928" stroke="none" stroke-width="10" d="M 20 40 l 0 20 20 0 0 20 20 0 0 -20 20 0 0 -20 -20 0 0 -20 -20 0 0 20 z"/>
        </symbol>
        <symbol id="Bahnhof" viewBox="537.828125 -286.53125 34.13671875 32.28515625">
            <g transform="scale(1 -1)">
                <path fill="#F1F0EA" stroke="#F1F0EA" stroke-opacity="1" stroke-width="1.57249999" d="m 685.23438,422.17188 0,3.14453 0,-3.14453 z m 11.45507,0 0,3.14453 0,-3.14453 z m -16.20898,3.25781 34.47656,0 -34.47656,0 z" transform="matrix(0.8,0,0,-0.8,0,595.22)"/>
                <path id="path358-2" fill="#F1F0EA" fill-opacity="1" fill-rule="nonzero" stroke="none" d="m 562.77195,261.76473 9.194,0 0,-7.517 -9.194,0 0,7.517 z"/>
                <path fill="#F1F0EA" fill-opacity="1" fill-rule="evenodd" stroke="none" d="M 690.40039 397.50391 L 690.40039 400.46094 L 683.0625 400.46094 C 681.64 400.46094 680.48047 401.62047 680.48047 403.04297 L 680.48047 419.28906 C 680.48047 420.71031 681.64 421.87305 683.0625 421.87305 L 698.78516 421.87305 C 700.20766 421.87305 701.36719 420.71031 701.36719 419.28906 L 701.36719 403.04297 C 701.36719 401.62047 700.20766 400.46094 698.78516 400.46094 L 691.44922 400.46094 L 691.44922 397.50391 L 690.40039 397.50391 z M 690.84961 397.95312 L 690.96289 397.95312 L 690.96289 400.46094 L 690.84961 400.46094 L 690.84961 397.95312 z M 682.50391 403.53125 L 689.91406 403.53125 L 689.91406 407.79688 L 682.50391 407.79688 L 682.50391 403.53125 z M 692.01172 403.56836 L 699.42188 403.56836 L 699.42188 407.83594 L 692.01172 407.83594 L 692.01172 403.56836 z M 690.77344 411.39062 L 691.07422 411.39062 L 691.26172 411.42969 L 691.37305 411.4668 L 691.41016 411.50391 L 691.56055 411.57812 L 691.63477 411.65234 L 691.71094 411.68945 L 691.74805 411.72656 L 691.74805 411.80273 L 691.78516 411.80273 L 691.86133 411.87695 L 691.86133 411.95312 L 691.89844 411.95312 L 691.93555 411.99023 L 691.93555 412.06445 L 691.97266 412.06445 L 691.97266 412.17773 L 692.00977 412.17773 L 692.00977 412.36328 L 692.04883 412.36328 C 692.04258 412.93453 691.70758 413.48625 691.11133 413.5625 L 691.11133 413.59961 L 690.73633 413.5625 L 690.58789 413.52539 L 690.36328 413.41211 L 690.32617 413.375 L 690.25 413.33789 L 690.09961 413.1875 L 690.0625 413.1875 L 690.0625 413.11328 L 690.02539 413.07422 L 689.98828 413.07422 L 689.98828 413 L 689.95117 413 L 689.95117 412.92578 L 689.91406 412.92578 L 689.91406 412.85156 L 689.87695 412.85156 L 689.87695 412.70117 L 689.83984 412.70117 C 689.80484 412.26617 689.86336 412.08938 690.09961 411.76562 C 690.32336 411.55563 690.45969 411.44937 690.77344 411.39062 z M 692.23438 411.63477 C 692.23807 411.64032 692.24051 411.64674 692.24414 411.65234 L 692.23438 411.65234 L 692.23438 411.63477 z M 692.27148 411.70508 C 692.27565 411.71209 692.27914 411.71948 692.2832 411.72656 L 692.27148 411.72656 L 692.27148 411.70508 z M 692.30859 411.77344 C 692.31378 411.78327 692.31923 411.79277 692.32422 411.80273 L 692.30859 411.80273 L 692.30859 411.77344 z M 692.38477 411.93359 C 692.3872 411.93988 692.38827 411.9468 692.39062 411.95312 L 692.38477 411.95312 L 692.38477 411.93359 z M 692.42188 412.05469 C 692.42287 412.05805 692.4248 412.06108 692.42578 412.06445 L 692.42188 412.06445 L 692.42188 412.05469 z M 692.45898 412.17383 C 692.46183 412.18725 692.46233 412.20127 692.46484 412.21484 L 692.45898 412.21484 L 692.45898 412.17383 z M 692.48242 412.63477 C 692.44415 413.1114 692.1932 413.52223 691.81836 413.77539 C 692.19202 413.51842 692.42139 413.10232 692.48242 412.63477 z M 689.41797 412.81445 L 689.42773 412.81445 L 689.42773 412.85156 C 689.42501 412.83903 689.42039 412.82711 689.41797 412.81445 z M 689.46094 412.96289 L 689.46484 412.96289 L 689.46484 412.97461 C 689.46364 412.97068 689.46211 412.96683 689.46094 412.96289 z M 689.49414 413.07422 L 689.50195 413.07422 L 689.50195 413.09766 C 689.49893 413.09012 689.49704 413.08182 689.49414 413.07422 z M 689.52539 413.15039 L 689.53906 413.15039 L 689.53906 413.17578 C 689.53493 413.16698 689.52936 413.15929 689.52539 413.15039 z M 689.56445 413.22461 L 689.57617 413.22461 L 689.57617 413.24609 C 689.5723 413.23885 689.56822 413.23192 689.56445 413.22461 z M 689.60547 413.30078 L 689.61523 413.30078 L 689.61523 413.31836 C 689.61174 413.31262 689.60888 413.30658 689.60547 413.30078 z M 689.64453 413.375 L 689.65234 413.375 L 689.76367 413.48828 L 689.76367 413.51953 C 689.723 413.47248 689.67921 413.42697 689.64453 413.375 z M 689.81641 413.57617 C 689.84162 413.6025 689.87142 413.62395 689.89844 413.64844 L 689.95117 413.67578 L 690.04883 413.77344 C 690.07334 413.79051 690.1014 413.80271 690.12695 413.81836 L 690.0625 413.78711 L 690.04883 413.77344 C 689.99508 413.73599 689.94681 413.69228 689.89844 413.64844 L 689.87695 413.63672 L 689.81641 413.57617 z M 690.74219 414.01953 L 691.04883 414.03711 C 691.00687 414.04037 690.9666 414.04883 690.92383 414.04883 C 690.85962 414.04883 690.80317 414.02839 690.74219 414.01953 z M 696.61523 416.0332 C 696.7272 416.0332 696.83576 416.04751 696.94141 416.07031 L 696.28906 416.07031 C 696.39477 416.04751 696.50327 416.0332 696.61523 416.0332 z M 696.16016 416.10938 C 696.1031 416.12797 696.04408 416.14413 695.99023 416.16797 C 695.85133 416.22945 695.7291 416.31348 695.61523 416.40625 C 695.72931 416.31089 695.85277 416.22849 695.99023 416.16797 C 696.04483 416.14393 696.10264 416.12715 696.16016 416.10938 z M 697.0918 416.11719 C 697.22789 416.16147 697.35715 416.2171 697.47461 416.29492 C 697.49913 416.31117 697.52137 416.3301 697.54492 416.34766 L 697.51367 416.33203 L 697.47461 416.29492 C 697.35052 416.2264 697.22513 416.16361 697.0918 416.11719 z M 685.89258 416.24219 C 685.94666 416.26941 686.0004 416.29507 686.05078 416.32812 L 685.9082 416.25781 L 685.89258 416.24219 z M 697.66797 416.44922 C 697.70404 416.48214 697.73856 416.51666 697.77148 416.55273 L 697.66797 416.44922 z M 696.42773 416.51953 L 696.80273 416.51953 C 697.06773 416.55828 697.19914 416.69086 697.40039 416.81836 L 697.40039 416.89453 L 697.4375 416.89453 L 697.55078 417.00586 L 697.55078 417.08203 L 697.58789 417.08203 L 697.58789 417.15625 L 697.625 417.15625 L 697.625 417.23047 L 697.66211 417.23047 L 697.66211 417.3418 L 697.69922 417.3418 L 697.66211 417.86719 L 697.625 418.01562 L 697.58789 418.0918 L 697.55078 418.12891 C 697.41828 418.48016 697.09992 418.61695 696.76367 418.68945 L 696.76367 418.72656 L 696.50195 418.68945 L 696.31445 418.65234 L 696.20312 418.61523 L 695.97852 418.50391 L 695.75391 418.2793 L 695.71484 418.2793 L 695.71484 418.20312 L 695.67773 418.16602 L 695.64062 418.16602 L 695.64062 418.0918 L 695.60352 418.0918 L 695.60352 418.01562 L 695.56641 418.01562 L 695.56641 417.86719 L 695.5293 417.86719 L 695.5293 417.3418 L 695.56641 417.23047 L 695.67773 417.00586 L 695.79102 416.89453 L 695.82812 416.81836 L 695.90234 416.78125 C 696.04359 416.635 696.22523 416.55453 696.42773 416.51953 z M 684.97266 416.55664 L 685.42188 416.55664 L 685.64648 416.63086 L 685.68359 416.66797 L 685.83398 416.74414 L 686.13281 417.04297 L 686.13281 417.11914 L 686.16992 417.11914 L 686.16992 417.19336 L 686.20898 417.19336 L 686.20898 417.26758 L 686.24609 417.26758 L 686.24609 417.41797 L 686.2832 417.41797 C 686.30695 417.86422 686.23148 418.01977 686.02148 418.35352 C 685.86398 418.54852 685.56109 418.70906 685.30859 418.72656 L 685.30859 418.76562 L 685.08398 418.72656 L 684.89844 418.68945 L 684.78516 418.65234 L 684.56055 418.54102 L 684.29883 418.2793 L 684.26172 418.2793 L 684.26172 418.20312 L 684.22461 418.20312 L 684.22461 418.12891 L 684.1875 418.12891 L 684.1875 418.05469 L 684.14844 418.05469 L 684.14844 417.94141 L 684.11133 417.94141 L 684.11133 417.38086 L 684.14844 417.26758 L 684.26172 417.04297 L 684.33594 416.96875 L 684.37305 416.89453 C 684.5568 416.73578 684.71766 416.59414 684.97266 416.55664 z M 697.84961 416.64844 C 697.87559 416.68171 697.90443 416.71275 697.92773 416.74805 L 697.88672 416.70703 L 697.84961 416.70703 L 697.84961 416.64844 z M 686.43359 416.6875 C 686.44953 416.70798 686.46194 416.73074 686.47656 416.75195 L 686.50586 416.78125 L 686.50586 416.79688 C 686.5185 416.81662 686.53293 416.8351 686.54492 416.85547 L 686.50586 416.85547 L 686.50586 416.79688 C 686.49624 416.78184 686.48668 416.76664 686.47656 416.75195 L 686.46875 416.74414 L 686.43359 416.74414 L 686.43359 416.6875 z M 697.96094 416.80859 C 697.97012 416.82392 697.97766 416.83982 697.98633 416.85547 L 697.96094 416.85547 L 697.96094 416.80859 z M 698 416.88086 C 698.00908 416.89798 698.01889 416.91417 698.02734 416.93164 L 698 416.93164 L 698 416.88086 z M 686.58203 416.91797 C 686.59111 416.93509 686.6009 416.95128 686.60938 416.96875 L 686.58203 416.96875 L 686.58203 416.91797 z M 698.03711 416.94922 C 698.04618 416.96861 698.05811 416.98606 698.06641 417.00586 L 698.03711 417.00586 L 698.03711 416.94922 z M 686.61914 416.98633 C 686.62822 417.00572 686.64014 417.02317 686.64844 417.04297 L 686.61914 417.04297 L 686.61914 416.98633 z M 698.07422 417.0332 C 698.08525 417.06094 698.0921 417.09068 698.10156 417.11914 L 698.07422 417.11914 L 698.07422 417.0332 z M 686.65625 417.07031 C 686.66728 417.09805 686.67413 417.12779 686.68359 417.15625 L 686.65625 417.15625 L 686.65625 417.07031 z M 698.11133 417.15234 C 698.11933 417.17832 698.12811 417.20396 698.13477 417.23047 L 698.11133 417.23047 L 698.11133 417.15234 z M 686.69336 417.18945 C 686.70518 417.22783 686.71965 417.26517 686.72852 417.30469 L 686.69336 417.30469 L 686.69336 417.18945 z M 698.14844 417.27148 C 698.15898 417.31913 698.16193 417.36889 698.16797 417.41797 L 698.14844 417.41797 L 698.14844 417.27148 z M 686.73242 417.31641 C 686.74474 417.37348 686.74808 417.43311 686.75391 417.49219 L 686.73242 417.49219 L 686.73242 417.31641 z M 698.17578 417.50195 C 698.17815 417.53687 698.1875 417.57 698.1875 417.60547 C 698.1875 418.16584 697.88309 418.6588 697.43555 418.9375 C 697.3519 418.98959 697.26475 419.03251 697.17188 419.06836 C 697.07739 419.10483 696.97889 419.13284 696.87695 419.15039 L 696.87695 419.14062 C 696.9807 419.12719 697.07862 419.10259 697.17188 419.06836 C 697.26513 419.03413 697.35361 418.98966 697.43555 418.9375 C 697.90379 418.63942 698.16837 418.07124 698.17578 417.50195 z M 686.75977 417.55078 C 686.76163 417.58178 686.76953 417.61115 686.76953 417.64258 C 686.76953 417.91822 686.67636 418.16495 686.54883 418.39062 C 686.68814 418.14282 686.70975 417.93874 686.75977 417.55078 z M 695.06445 417.83008 L 695.08008 417.83008 L 695.08008 417.93945 C 695.07216 417.90378 695.06985 417.86658 695.06445 417.83008 z M 683.64844 417.86719 L 683.66211 417.86719 L 683.66211 417.96875 C 683.65496 417.93565 683.65343 417.90099 683.64844 417.86719 z M 695.10352 418.01562 L 695.11719 418.01562 L 695.11719 418.05859 C 695.11275 418.04423 695.10754 418.03015 695.10352 418.01562 z M 683.68945 418.05469 L 683.69922 418.05469 L 683.69922 418.08789 C 683.69588 418.07684 683.69256 418.06583 683.68945 418.05469 z M 695.13867 418.12891 L 695.1543 418.12891 L 695.1543 418.17773 C 695.14801 418.16197 695.14445 418.14491 695.13867 418.12891 z M 683.72266 418.16602 L 683.73633 418.16602 L 683.73633 418.20898 C 683.73086 418.19509 683.72774 418.18009 683.72266 418.16602 z M 695.18164 418.24219 L 695.19141 418.24219 L 695.19141 418.26172 C 695.18829 418.25508 695.18466 418.24887 695.18164 418.24219 z M 683.76562 418.2793 L 683.77344 418.2793 L 683.77344 418.29492 C 683.77097 418.28961 683.76806 418.28464 683.76562 418.2793 z M 695.22266 418.31641 L 695.22852 418.31641 L 695.26758 418.35352 L 695.26758 418.39844 C 695.25155 418.37159 695.2371 418.34423 695.22266 418.31641 z M 683.80664 418.35352 L 683.8125 418.35352 L 683.8125 418.36523 C 683.81045 418.36136 683.80866 418.35741 683.80664 418.35352 z M 695.28516 418.42969 L 695.30469 418.42969 L 695.30469 418.4668 C 695.29693 418.45515 695.29261 418.44155 695.28516 418.42969 z M 695.33203 418.50391 L 695.3418 418.50391 L 695.41602 418.57812 L 695.41602 418.60547 C 695.38784 418.5719 695.35739 418.53972 695.33203 418.50391 z M 683.89258 418.50977 L 683.96094 418.57812 L 683.96094 418.5957 C 683.93842 418.56669 683.91308 418.54031 683.89258 418.50977 z M 695.45508 418.65234 L 695.56641 418.76562 C 695.52697 418.72996 695.49078 418.69174 695.45508 418.65234 z M 686.32422 418.71289 C 686.3083 418.7323 686.30057 418.74517 686.2832 418.76562 C 686.22535 418.80692 686.1926 418.82594 686.14648 418.85938 C 686.2072 418.81204 686.27101 418.76836 686.32422 418.71289 z M 695.62305 418.8125 L 695.67773 418.83984 L 695.75391 418.91406 L 696.05273 419.06445 L 696.16602 419.10156 L 696.35156 419.14062 L 696.7207 419.16602 C 696.68514 419.16848 696.65136 419.17773 696.61523 419.17773 C 696.45828 419.17773 696.3097 419.1454 696.16602 419.10156 C 695.96521 419.0403 695.78194 418.94348 695.62305 418.8125 z M 684.20508 418.84766 L 684.26172 418.87695 L 684.33594 418.95312 C 684.28922 418.9221 684.24819 418.88333 684.20508 418.84766 z M 684.34375 418.95703 C 684.45961 419.03305 684.58695 419.08731 684.7207 419.13086 L 684.63477 419.10156 L 684.34375 418.95703 z M 685.85156 419.04883 C 685.72913 419.11297 685.60042 419.16315 685.45898 419.1875 L 685.45898 419.17773 C 685.62882 419.14193 685.74814 419.10062 685.85156 419.04883 z M 684.75586 419.14258 C 684.83262 419.16556 684.91579 419.16876 684.99609 419.18164 L 685.30273 419.20312 C 685.26718 419.20559 685.23339 419.21484 685.19727 419.21484 C 685.12719 419.21484 685.06336 419.19243 684.99609 419.18164 L 684.93555 419.17773 L 684.75586 419.14258 z " transform="matrix(0.8,0,0,-0.8,0,595.22)"/>
                <path fill="#F1F0EA" stroke="#F1F0EA" stroke-opacity="1" stroke-width="0.419" d="m 548.57745,277.42703 8.355,0 m -8.355,0 8.355,0"/>
                <path fill="#ffffff" fill-opacity="1" fill-rule="nonzero" stroke="none" d="m 693.13281,385.86133 0,0.0371 c -3.4325,1.5925 -6.85797,3.20601 -10.29297,4.79101 -1.84125,0.87 -3.69351,1.73274 -5.54101,2.58399 -0.9025,0.43375 -1.82117,0.86094 -2.73242,1.27344 -0.51875,0.26249 -1.05352,0.48429 -1.57227,0.74804 l -0.11328,0.0371 -0.44727,0.22461 -0.11328,0.0371 -0.0371,0.0371 0,2.32226 0.0371,-0.0391 0.44922,-0.22461 0.11133,-0.0371 0.44922,-0.22265 c 0.3275,-0.0987 0.90883,-0.465 1.23633,-0.5625 0.90125,-0.435 1.81992,-0.86094 2.73242,-1.27344 1.8025,-0.86125 3.62398,-1.68617 5.42773,-2.54492 1.72625,-0.7825 3.43977,-1.61274 5.16602,-2.39649 0.9025,-0.43 1.82242,-0.85898 2.73242,-1.27148 0.5175,-0.2625 1.05477,-0.4875 1.57227,-0.75 l 0.11132,-0.0371 0.45118,-0.22461 0.11132,-0.0371 0.22461,-0.11133 0.0742,0 0,-0.0391 0.0391,0 0.37305,0.1875 0.11133,0.0391 0.45117,0.22266 c 0.31625,0.0975 0.85516,0.43414 1.16016,0.52539 0.9275,0.44375 1.87039,0.8868 2.80664,1.31055 1.80125,0.8625 3.62648,1.67992 5.42773,2.54492 1.7,0.7725 3.3918,1.58367 5.0918,2.35742 0.9275,0.44375 1.87039,0.8868 2.80664,1.31055 0.495,0.24625 1.0043,0.46094 1.49805,0.71093 0.165,0.0625 0.93718,0.41344 1.08593,0.52344 l 0,-2.32031 c -6.945,-3.25625 -13.90406,-6.48242 -20.85156,-9.73242 l -0.0371,0 z" transform="matrix(0.8,0,0,-0.8,0,595.22)"/>
            </g>
        </symbol>
        <symbol id="Tourist_Info" viewBox="114.1015625 24.5703125 77.0234375 77.0234375">
            <path fill="#F1F0EA" fill-opacity="1" fill-rule="evenodd" stroke="none" d="m 135.84984,93.944743 0,-2.625 5.175,0 1.125,-0.225 1.275,-1.275 0.225,-1.125 0,-26.925 -0.225,-0.9 -0.675,-0.9 -0.6,-0.6 -1.125,-0.225 -2.625,0 0,-2.4 23.1,0 0,31.95 0.225,1.125 1.275,1.275 1.125,0.225 5.175,0 0,2.625 -33.45,0 z m 25.65,-51.6 0,2.025 -0.675,1.725 -0.825,1.5 -1.125,1.275 -1.275,1.125 -1.575,0.9 -1.725,0.375 -1.725,0.225 -1.725,-0.225 -1.725,-0.375 -1.575,-0.9 -1.275,-1.125 -1.125,-1.275 -0.825,-1.5 -0.45,-1.725 -0.225,-2.025 0.225,-1.725 0.45,-1.725 0.825,-1.5 1.125,-1.35 1.275,-1.05 1.575,-0.9 1.725,-0.45 1.725,-0.225 1.725,0.225 1.725,0.45 1.575,0.9 1.275,1.05 1.125,1.35 0.825,1.5 0.675,1.725 0,1.725"/>
        </symbol>
        <symbol id="Jugendherberge" viewBox="226.578125 24.28125 57.296875 56.8515625">
            <path fill="#F1F0EA" fill-opacity="1" fill-rule="evenodd" stroke="none" d="M 234.30078 24.283203 L 234.00195 25.482422 L 234.00195 26.908203 L 233.85156 27.357422 L 233.77734 27.808594 L 233.55078 28.183594 L 233.55078 28.632812 L 233.10156 32.458984 L 232.65234 36.507812 L 232.20117 40.632812 L 231.52734 44.683594 L 231.22656 46.708984 L 230.77734 48.732422 L 230.32617 50.607422 L 229.80078 52.632812 L 229.12695 54.433594 L 228.30078 56.308594 L 227.55078 58.107422 L 226.57617 59.757812 L 226.57617 61.033203 L 227.25195 61.183594 L 227.77734 61.183594 L 228.45117 61.033203 L 228.97656 60.958984 L 230.10156 60.583984 L 231.07617 60.132812 L 232.20117 60.132812 L 232.65234 59.982422 L 233.10156 59.757812 L 233.55078 59.308594 L 234.00195 59.308594 L 233.85156 59.533203 L 233.62695 59.982422 L 233.40234 60.357422 L 233.10156 60.583984 L 232.42578 61.933594 L 231.67578 62.982422 L 230.77734 64.183594 L 229.87695 65.458984 L 229.12695 66.433594 L 228.00195 67.708984 L 227.47656 68.308594 L 227.02734 68.982422 L 226.65234 69.732422 L 226.57617 70.183594 L 227.25195 69.958984 L 227.77734 69.882812 L 228.67578 69.882812 L 229.87695 69.583984 L 231.07617 69.283203 L 232.20117 68.757812 L 233.17578 68.308594 L 234.97656 67.033203 L 236.77734 65.458984 L 238.65234 63.433594 L 239.32617 62.833984 L 239.62695 64.783203 L 240.52734 67.708984 L 240.75195 68.683594 L 240.90234 69.732422 L 240.90234 70.708984 L 241.05078 71.007812 L 241.27734 71.382812 L 241.27734 72.433594 L 241.50195 72.808594 L 241.65234 73.408203 L 241.72656 74.007812 L 241.72656 76.632812 L 241.87695 77.083984 L 242.10156 77.683594 L 227.02734 77.683594 L 227.02734 81.132812 L 283.87695 81.132812 L 283.87695 77.683594 L 279.82617 77.683594 L 279.82617 48.357422 L 283.12695 48.357422 L 283.12695 47.908203 L 281.02734 45.507812 L 279.37695 43.482422 L 277.80078 41.607422 L 276.15234 39.583984 L 274.05078 37.107422 L 271.50195 34.033203 L 268.12695 29.982422 L 263.85156 24.732422 L 263.47656 24.732422 L 261.60156 26.982422 L 259.20117 30.208984 L 256.27734 34.033203 L 253.42578 37.783203 L 250.50195 41.607422 L 248.10156 44.833984 L 246.30078 47.158203 L 245.40234 48.357422 L 249.52734 48.357422 L 249.52734 62.382812 L 248.85156 61.933594 L 248.32617 61.408203 L 247.20117 60.583984 L 246.22656 59.607422 L 245.17578 58.708984 L 244.20117 57.507812 L 243.45117 56.308594 L 242.62695 55.107422 L 242.10156 53.683594 L 241.72656 52.257812 L 242.55078 52.257812 L 245.85156 52.257812 L 246.22656 52.257812 L 247.27734 51.808594 L 248.32617 51.433594 L 248.32617 50.982422 L 247.87695 50.607422 L 247.42578 50.382812 L 246.82617 50.158203 L 246.22656 50.158203 L 245.40234 49.183594 L 244.65234 48.357422 L 243.75195 47.382812 L 243.00195 46.482422 L 242.40234 45.658203 L 241.87695 44.683594 L 240.97656 42.808594 L 240.07617 40.408203 L 239.40234 38.757812 L 238.65234 36.507812 L 237.90234 33.882812 L 237.07617 31.183594 L 236.32617 28.632812 L 235.57617 26.533203 L 235.20117 25.558594 L 234.67578 24.507812 L 234.30078 24.283203 z M 260.17578 54.433594 L 260.62695 54.433594 L 268.80078 54.433594 L 268.80078 77.683594 L 260.62695 77.683594 L 260.17578 77.683594 L 260.17578 54.433594 z M 243.00195 62.382812 L 243.45117 62.382812 L 244.65234 63.208984 L 245.85156 63.808594 L 247.20117 64.183594 L 248.77734 64.482422 L 249.07617 64.482422 L 249.07617 77.683594 L 248.17578 77.533203 L 247.27734 77.458984 L 246.30078 77.308594 L 245.40234 77.232422 L 245.10156 75.808594 L 244.65234 73.857422 L 244.20117 72.132812 L 243.75195 71.158203 L 243.75195 69.732422 L 243.60156 68.982422 L 243.45117 68.083984 L 243.07617 66.732422 L 243.00195 65.908203 L 243.00195 62.382812 z "/>
        </symbol>
        <symbol id="Hotel" viewBox="313.28515625 17.39453125 75.44921875 75.44921875">
            <path fill="#F1F0EA" fill-opacity="1" fill-rule="evenodd" stroke="none" d="m 381.00838,72.294858 -5.4,0 0,-5.325 -49.95,0 0,5.325 -5.175,0 0,-22.725 0.525,-0.375 0.375,-0.375 0.75,-0.375 1.5,0 0.9,0.375 0.75,0.375 0.375,0.375 0,9.975 40.125,0 1.125,-0.15 0.9,0 1.125,-0.375 0.975,-0.225 0.675,-0.525 0.975,-0.375 0.75,-0.525 0.75,-0.6 1.05,-1.5 0.375,-0.9 0.375,-0.75 0.375,-0.9 0.225,-1.125 0.15,-0.9 0,-13.874998 0.525,-0.375 1.5,-0.75 1.5,0 0.525,0.375 0.75,0.375 0.6,0.375 0,35.474998 z m -22.2,-14.025 0.675,0 0.6,-0.375 0.375,-0.525 0.15,-0.75 0,-0.6 -0.15,-0.375 -0.225,-0.375 -0.15,-0.525 -1.275,-0.75 -1.5,-0.525 -1.5,-0.6 -1.65,-0.3 -2.625,-0.75 -2.55,-0.6 -2.625,-0.375 -2.55,-0.15 -2.625,0.15 -2.55,0.375 -2.775,0.6 -2.625,0.75 -1.65,0.3 -1.5,0.6 -1.275,0.525 -1.275,0.75 -0.375,0.525 -0.225,0.375 0,1.725 0.375,0.525 0.6,0.375 30.9,0 z m 15.15,-11.625 -0.75,-0.375 -0.9,-0.375 -0.975,0 -1.05,0.375 -1.125,0.375 -1.35,0.675 -2.55,2.25 -1.125,1.125 -0.75,1.125 -0.525,1.275 -0.6,1.125 -0.15,0.9 0,0.9 0.375,0.975 0.375,0.75 0.525,0.525 0.975,0.15 0.9,0 1.125,-0.15 1.125,-0.525 1.275,-0.75 1.125,-0.975 1.05,-1.275 1.35,-1.125 0.9,-1.05 0.75,-1.35 0.525,-1.125 0.225,-1.05 0,-0.975 -0.225,-0.75 -0.525,-0.675"/>
        </symbol>
        <symbol id="Gaststätte" viewBox="405.50390625 13.36328125 76.80078125 76.875">
            <path fill="#F1F0EA" fill-opacity="1" fill-rule="evenodd" stroke="none" d="m 444.72784,56.7897 -22.95,24.225 -1.125,0 -1.125,-0.375 -0.975,-0.3 -0.9,-0.6 -0.75,-0.525 -0.525,-0.975 -0.375,-0.9 -0.225,-0.975 0,-1.275 25.425,-21.9 3.525,3.6 z m 4.875,-5.85 -3.525,-3.525 5.175,-4.875 1.35,-1.275 0.75,-1.35 0.75,-1.275 0.15,-1.35 0,-1.125 0.225,-1.8 0.375,-1.5 0.375,-0.75 0.525,-0.6 0.6,-0.375 0.9,-0.375 9.9,-7.65 0.75,0 0,1.125 -8.925,9.525 0,0.375 0.15,0.225 0.375,0 9.525,-9.375 1.125,0 0,1.125 -9.3,9.525 0.15,0.375 0.375,0.15 1.125,0 8.25,-8.925 1.275,0 0.225,0.15 0.3,0.375 -0.525,0 -8.4,9.525 -0.975,0 -0.15,0.225 0,0.375 1.875,0 8.175,-8.775 1.125,0 0.375,0.15 0.225,0.375 -7.125,10.65 -1.275,1.35 -1.35,1.125 -1.5,0.75 -0.9,0.15 -0.75,0.225 -3.15,0 -1.35,0.375 -1.125,0.525 -0.9,0.75 -5.25,5.4 z m -14.175,0 -13.65,-14.775 -1.35,-0.9 -0.9,-1.125 -0.75,-1.275 -0.75,-1.5 -0.75,-3 -0.225,-1.725 0,-1.65 0.225,-0.525 0.375,-0.6 0.525,-0.525 0.6,-0.225 1.875,0 24.075,24.3 29.55,27.675 0,2.25 -0.375,0.9 -0.375,0.975 -0.6,0.525 -0.675,0.6 -1.35,0.675 -1.875,0 -28.95,-30.6 -0.6,-0.75 -0.525,-0.375 -0.525,-0.225 -0.6,0 -0.525,0.225 -0.375,0.15 -0.225,0.225 -0.15,0.375 0,0.375 -1.125,0.525"/>
        </symbol>
        <symbol id="Campingplatz" viewBox="496.6953125 16.34375 77.55078125 77.55078125">
            <path fill="#F1F0EA" fill-opacity="1" fill-rule="evenodd" stroke="none" d="m 514.47024,47.54486 47.175,-0.15 -47.175,0.15 z m 34.35,-0.15 -10.8,-15.75 10.8,15.75 z m -9.9,-28.875 -20.55,29.025 8.925,-0.15 10.725,-15.75 -10.8,15.75 10.8,-15.825 10.725,15.825 8.925,-0.075 -20.775,-28.8 2.025,0 z m 18.675,29.025 -19.65,-27.45 19.65,27.45 z m -20.625,-29.025 0.975,1.35 0.9,-1.35 -1.875,0"/>
            <path fill="#ffffff" fill-opacity="1" fill-rule="nonzero" stroke="none" d="m 534.94524,17.99486 6,0 0,0.9 -6,0 0,-0.9 z"/>
            <path fill="#F1F0EA" fill-opacity="1" fill-rule="evenodd" stroke="none" d="m 539.44524,90.29486 0.6,0 0.45,-0.15 0.525,-0.225 0.3,-0.375 0.45,-0.3 0.225,-0.45 0.15,-0.45 0,-1.05 -0.15,-0.45 -0.225,-0.45 -0.45,-0.375 -0.3,-0.3 -0.525,-0.225 -0.45,-0.15 -1.2,0 -0.45,0.15 -0.525,0.225 -0.375,0.3 -0.375,0.375 -0.225,0.45 -0.15,0.45 -0.075,0.525 0.075,0.525 0.15,0.45 0.225,0.45 0.375,0.3 0.375,0.375 0.525,0.225 0.45,0.15 0.6,0 z m -22.575,-2.925 5.4,-0.075 0,-24.375 10.05,0.075 0,24.375 3.075,0 1.5,-2.7 4.725,0 1.875,2.7 15.825,0 3.75,-15.525 -3.825,-17.85 -42.75,0 -4.575,17.1 4.95,16.275 z m 24.675,-28.5 11.7,0 0,8.1 -11.7,0 0,-8.1 z m -24.45,28.65 -7.2,0 7.2,0"/>
            <path fill="#F1F0EA" fill-opacity="1" fill-rule="nonzero" stroke="none" d="m 539.44524,90.06986 0,0.45 0,-0.45 z m 0,0 0.525,0 0.45,-0.15 0.45,-0.3 0.3,-0.225 0.375,0.3 -0.45,0.375 -0.525,0.3 -0.525,0.075 -0.6,0.075 0,-0.45 z m 1.725,-0.675 0.375,-0.3 0.225,-0.45 0.15,-0.45 0,-0.375 0.525,0 -0.075,0.6 -0.225,0.45 -0.225,0.525 -0.375,0.3 -0.375,-0.3 z m 0.75,-1.575 0.525,0 -0.525,0 z m 0,0 0.525,0 -0.525,0 z m 0,0 0,-0.525 -0.15,-0.375 -0.225,-0.375 -0.375,-0.3 0.375,-0.45 0.375,0.45 0.225,0.525 0.225,0.45 0.075,0.6 -0.525,0 z m -0.75,-1.575 -0.3,-0.3 -0.45,-0.225 -0.45,-0.15 -0.525,-0.075 0,-0.375 0.6,0 0.525,0.15 0.525,0.225 0.45,0.3 -0.375,0.45 z m -1.725,-0.75 0,-0.375 0,0.375 z m 0,0 0,-0.375 0,0.375 z m 0,0 -0.525,0.075 -0.45,0.15 -0.45,0.225 -0.375,0.3 -0.375,-0.45 0.525,-0.3 0.525,-0.225 0.525,-0.15 0.6,0 0,0.375 z m -1.8,0.75 0,0 -0.15,-0.225 0.15,0.225 z m 0,0 -0.3,0.3 -0.225,0.375 -0.15,0.375 -0.075,0.525 -0.525,0 0.075,-0.6 0.225,-0.45 0.3,-0.525 0.3,-0.45 0.375,0.45 z m -0.75,1.575 -0.525,0 0.525,0 z m 0,0 -0.525,0 0.525,0 z m 0,0 0.075,0.375 0.15,0.45 0.225,0.45 0.3,0.3 -0.375,0.3 -0.3,-0.3 -0.3,-0.525 -0.225,-0.45 -0.075,-0.6 0.525,0 z m 0.75,1.575 0.375,0.225 0.45,0.3 0.45,0.15 0.525,0 0,0.45 -0.6,-0.075 -0.525,-0.075 -0.525,-0.3 -0.525,-0.375 0.375,-0.3 z m 1.8,0.675 0,0.45 0,-0.45 z m -22.575,-2.925 5.4,-0.075 0,0.525 -5.4,0.075 0,-0.525 z m 5.4,0.15 0.225,0 0,0.3 -0.225,0 0,-0.3 z m -0.3,-24.375 0.525,0 0,24.375 -0.525,0 0,-24.375 z m 0,-0.225 0.3,0 0,0.225 -0.3,0 0,-0.225 z m 0.3,0 10.05,0.075 0,0.45 -10.05,-0.075 0,-0.45 z m 10.05,0.075 0.225,0 0,0.225 -0.225,0 0,-0.225 z m -0.225,0.225 0.45,0 0,24.375 -0.45,0 0,-24.375 z m 0,24.375 0.225,0 0,0.3 -0.225,0 0,-0.3 z m 0.225,-0.225 3.075,0 0,0.525 -3.075,0 0,-0.525 z m 3.225,0.45 -0.075,0.075 -0.075,0 0,-0.3 0.15,0.225 z m -0.375,-0.3 1.5,-2.775 0.375,0.225 -1.5,2.85 -0.375,-0.3 z m 1.5,-2.775 0.075,-0.075 0.15,0 0,0.225 -0.225,-0.15 z m 0.225,-0.075 4.725,0 0,0.45 -4.725,-0.075 0,-0.375 z m 4.725,0 0.075,0 0.075,0.075 -0.15,0.15 0,-0.225 z m 0.15,0.075 1.875,2.7 -0.375,0.3 -1.95,-2.775 0.45,-0.225 z m 1.725,3.15 -0.15,0 -0.075,-0.15 0.225,-0.15 0,0.3 z m 0,-0.525 15.825,0 0,0.525 -15.825,0 0,-0.525 z m 16.05,0.375 0,0.15 -0.225,0 0,-0.3 0.225,0.15 z m -0.45,-0.225 3.75,-15.525 0.45,0.075 -3.75,15.675 -0.45,-0.225 z m 4.2,-15.525 0,0.075 -0.225,0 0.225,-0.075 z m -0.45,0.075 -3.9,-17.85 0.525,-0.075 3.825,17.85 -0.45,0.075 z m -3.6,-18.15 0.15,0 0.075,0.225 -0.225,0.075 0,-0.3 z m -42.75,0 42.75,0 0,0.525 -42.75,0 0,-0.525 z m -0.225,0.225 0.075,-0.225 0.15,0 0,0.3 -0.225,-0.075 z m 0.525,0.075 -4.725,17.1 -0.45,-0.075 4.65,-17.1 0.525,0.075 z m -5.175,17.175 -0.075,-0.075 0.075,-0.075 0.3,0.075 -0.3,0.075 z m 0.45,-0.15 5.025,16.275 -0.375,0.225 -5.1,-16.35 0.45,-0.15 z m 4.8,16.65 -0.15,0 0,-0.15 0.15,-0.15 0,0.3 z m 24.675,-29.1 11.7,0 0,0.525 -11.7,0 0,-0.525 z m 11.7,0 0.3,0 0,0.3 -0.3,0 0,-0.3 z m -0.225,0.3 0.525,0 0,8.1 -0.525,0 0,-8.1 z m 0.225,8.1 0.3,0 0,0.225 -0.3,0 0,-0.225 z m -11.7,-0.225 11.7,0 0,0.45 -11.7,0 0,-0.45 z m -0.3,0.225 0.3,0 0,0.225 -0.3,0 0,-0.225 z m 0,-8.1 0.525,0 0,8.1 -0.525,0 0,-8.1 z m 0,-0.3 0.3,0 0,0.3 -0.3,0 0,-0.3 z m -31.35,28.65 7.2,0 0,0.525 -7.2,0 0,-0.525 z"/>
            <path fill="#F1F0EA" fill-opacity="1" fill-rule="nonzero" stroke="none" d="m 522.12024,87.06986 10.125,0 0,0.525 -10.125,0 0,-0.525 z"/>
        </symbol>
        <symbol id="Stadion" viewBox="18.26171875 113.1953125 76.27734375 76.2734375">
            <path fill="#F1F0EA" fill-opacity="1" fill-rule="evenodd" stroke="none" d="m 86.887712,159.69449 -2.175,-1.05 0.675,-1.65 0.45,-1.95 0.375,-1.875 0,-3.675 -0.375,-1.875 -0.45,-1.875 -0.675,-1.725 2.175,-1.05 0.825,1.875 0.675,2.1 0.375,2.175 0,4.425 -0.375,2.175 -0.675,2.1 -0.825,1.875"/>
            <path fill="#F1F0EA" fill-opacity="1" fill-rule="evenodd" stroke="none" d="m 82.387712,157.59449 -2.325,-1.05 0.675,-1.275 0.225,-1.275 0.15,-1.275 0.225,-1.275 -0.225,-1.5 -0.15,-1.275 -0.225,-1.275 -0.675,-1.275 2.325,-1.05 0.675,1.5 0.375,1.5 0.225,1.65 0.225,1.725 -0.225,1.5 -0.225,1.65 -0.375,1.5 -0.675,1.5"/>
            <path fill="#F1F0EA" fill-opacity="1" fill-rule="evenodd" stroke="none" d="m 77.962712,155.49449 -2.325,-1.05 0.375,-1.5 0.225,-1.5 -0.225,-1.725 -0.375,-1.5 2.325,-1.05 0.45,0.9 0.15,1.05 0.225,1.05 0,2.1 -0.225,1.275 -0.15,0.9 -0.45,1.05"/>
            <path fill="#F1F0EA" fill-opacity="1" fill-rule="evenodd" stroke="none" d="m 73.687712,131.86949 1.725,0.45 1.725,0.825 1.65,0.9 1.5,0.825 1.5,1.05 1.275,1.275 1.275,1.5 1.05,1.5 -2.1,1.275 -0.9,-1.275 -2.325,-2.325 -1.275,-0.9 -1.275,-0.825 -1.5,-0.825 -1.425,-0.45 -1.5,-0.6 0.6,-2.4"/>
            <path fill="#F1F0EA" fill-opacity="1" fill-rule="evenodd" stroke="none" d="m 72.412712,136.81949 1.275,0.375 1.275,0.45 1.275,0.6 1.05,0.9 1.275,0.6 0.9,1.05 1.05,1.125 0.6,1.05 -1.875,1.5 -1.5,-1.95 -1.725,-1.5 -2.1,-1.05 -2.1,-0.825 0.6,-2.325"/>
            <path fill="#F1F0EA" fill-opacity="1" fill-rule="evenodd" stroke="none" d="m 71.137712,141.69449 1.95,0.6 1.5,0.9 1.275,1.05 1.275,1.5 -2.175,1.425 -0.825,-1.05 -2.1,-1.65 -1.5,-0.45 0.6,-2.325"/>
            <path fill="#F1F0EA" fill-opacity="1" fill-rule="evenodd" stroke="none" d="m 70.537712,131.26949 -0.225,2.55 -12.75,0 0.225,-2.55 12.75,0"/>
            <path fill="#F1F0EA" fill-opacity="1" fill-rule="evenodd" stroke="none" d="m 70.087712,136.36949 -0.225,2.55 -0.6,0 -0.45,-0.225 -11.475,0 0,-2.325 12.75,0"/>
            <path fill="#F1F0EA" fill-opacity="1" fill-rule="evenodd" stroke="none" d="m 69.637712,141.24449 -0.15,2.55 -12.525,0 0.15,-2.55 12.525,0"/>
            <path fill="#F1F0EA" fill-opacity="1" fill-rule="evenodd" stroke="none" d="m 73.687712,170.79449 -0.6,-2.4 1.5,-0.6 1.425,-0.675 1.5,-0.6 1.275,-0.825 1.275,-1.125 1.275,-1.05 1.05,-1.05 0.9,-1.5 2.1,1.5 -1.05,1.5 -2.55,2.55 -1.5,1.275 -1.5,0.825 -1.65,0.9 -1.725,0.6 -1.725,0.675"/>
            <path fill="#F1F0EA" fill-opacity="1" fill-rule="evenodd" stroke="none" d="m 72.412712,165.84449 -0.6,-2.55 2.1,-0.6 2.1,-1.05 0.9,-0.825 0.825,-0.675 0.825,-0.825 0.675,-1.05 1.875,1.425 -0.6,1.125 -1.05,1.05 -0.9,0.825 -1.275,0.825 -1.05,0.9 -1.275,0.6 -1.275,0.45 -1.275,0.375"/>
            <path fill="#F1F0EA" fill-opacity="1" fill-rule="evenodd" stroke="none" d="m 71.137712,160.96949 -0.6,-2.325 1.5,-0.375 1.05,-0.9 1.05,-0.825 0.825,-1.05 2.175,1.5 -2.55,2.55 -1.5,0.825 -1.95,0.6"/>
            <path fill="#F1F0EA" fill-opacity="1" fill-rule="evenodd" stroke="none" d="m 70.537712,171.16949 -0.9,0.225 -11.85,0 -0.225,-2.55 12.75,0 0.225,2.325"/>
            <path fill="#F1F0EA" fill-opacity="1" fill-rule="evenodd" stroke="none" d="m 70.087712,166.29449 -12.75,0 0,-2.55 12.525,0 0.225,2.55"/>
            <path fill="#F1F0EA" fill-opacity="1" fill-rule="evenodd" stroke="none" d="m 69.637712,161.19449 -0.375,0.225 -12.15,0 -0.15,-2.55 12.525,0 0.15,2.325"/>
            <path fill="#F1F0EA" fill-opacity="1" fill-rule="evenodd" stroke="none" d="m 25.912712,159.69449 -0.825,-1.875 -0.675,-2.1 -0.375,-2.175 0,-4.425 0.375,-2.175 0.675,-2.1 0.825,-1.875 2.175,1.05 -0.675,1.725 -0.45,1.875 -0.375,1.875 0,3.675 0.375,1.875 0.45,1.95 0.675,1.65 -2.175,1.05"/>
            <path fill="#F1F0EA" fill-opacity="1" fill-rule="evenodd" stroke="none" d="m 30.412712,157.59449 -0.675,-1.5 -0.375,-1.5 -0.225,-1.65 0,-3.225 0.225,-1.65 0.375,-1.5 0.675,-1.5 2.325,1.05 -0.675,1.275 -0.15,1.275 -0.225,1.275 -0.225,1.5 0.45,2.55 0.15,1.275 0.675,1.275 -2.325,1.05"/>
            <path fill="#F1F0EA" fill-opacity="1" fill-rule="evenodd" stroke="none" d="m 34.837712,155.49449 -0.375,-1.05 -0.225,-0.9 -0.225,-1.275 0,-2.1 0.45,-2.1 0.375,-0.9 2.325,1.05 -0.375,1.5 -0.225,1.725 0.225,1.5 0.375,1.5 -2.325,1.05"/>
            <path fill="#F1F0EA" fill-opacity="1" fill-rule="evenodd" stroke="none" d="m 39.337712,131.86949 0.375,2.4 -1.5,0.6 -1.425,0.45 -1.5,0.825 -1.275,0.825 -1.275,0.9 -2.325,2.325 -0.9,1.275 -2.1,-1.275 1.05,-1.5 1.275,-1.5 1.275,-1.275 1.5,-1.05 1.5,-0.825 1.725,-0.9 1.65,-0.825 1.95,-0.45"/>
            <path fill="#F1F0EA" fill-opacity="1" fill-rule="evenodd" stroke="none" d="m 40.387712,136.81949 0.6,2.325 -2.1,0.825 -2.1,1.05 -1.725,1.5 -1.5,1.95 -1.875,-1.5 0.6,-1.05 1.05,-1.125 1.125,-1.05 1.05,-0.6 1.05,-0.9 1.275,-0.6 1.275,-0.45 1.275,-0.375"/>
            <path fill="#F1F0EA" fill-opacity="1" fill-rule="evenodd" stroke="none" d="m 41.662712,141.69449 0.6,2.325 -1.275,0.45 -1.275,0.825 -1.05,0.825 -0.825,1.05 -2.1,-1.425 1.2,-1.5 1.275,-1.05 1.725,-0.9 1.725,-0.6"/>
            <path fill="#F1F0EA" fill-opacity="1" fill-rule="evenodd" stroke="none" d="m 42.262712,131.26949 12.975,0 0,2.55 -12.75,0 -0.225,-2.55"/>
            <path fill="#F1F0EA" fill-opacity="1" fill-rule="evenodd" stroke="none" d="m 42.712712,136.36949 12.75,0 0,2.325 -11.475,0 -0.45,0.225 -0.6,0 -0.225,-2.55"/>
            <path fill="#F1F0EA" fill-opacity="1" fill-rule="evenodd" stroke="none" d="m 43.162712,141.24449 12.525,0 0.15,2.55 -12.525,0 -0.15,-2.55"/>
            <path fill="#F1F0EA" fill-opacity="1" fill-rule="evenodd" stroke="none" d="m 39.337712,170.79449 -1.95,-0.675 -1.65,-0.6 -1.725,-0.9 -1.5,-0.825 -1.5,-1.275 -2.55,-2.55 -1.05,-1.5 2.1,-1.5 0.9,1.5 1.05,1.05 1.275,1.05 1.275,1.125 1.275,0.825 1.5,0.6 1.425,0.675 1.5,0.6 -0.375,2.4"/>
            <path fill="#F1F0EA" fill-opacity="1" fill-rule="evenodd" stroke="none" d="m 40.387712,165.84449 -1.275,-0.375 -1.275,-0.45 -1.275,-0.6 -1.05,-0.9 -1.05,-0.825 -1.125,-0.825 -1.05,-1.05 -0.6,-1.125 1.875,-1.425 0.9,1.05 0.6,0.825 0.825,0.675 0.9,0.825 2.1,1.05 2.1,0.6 -0.6,2.55"/>
            <path fill="#F1F0EA" fill-opacity="1" fill-rule="evenodd" stroke="none" d="m 41.662712,160.96949 -1.725,-0.6 -1.725,-0.825 -1.275,-1.275 -1.2,-1.275 2.1,-1.5 0.825,1.05 1.05,0.825 1.275,0.9 1.275,0.375 -0.6,2.325"/>
            <path fill="#F1F0EA" fill-opacity="1" fill-rule="evenodd" stroke="none" d="m 42.262712,171.16949 0.225,-2.325 12.75,0 0,2.55 -12.075,0 -0.9,-0.225"/>
            <path fill="#F1F0EA" fill-opacity="1" fill-rule="evenodd" stroke="none" d="m 42.712712,166.29449 0.225,-2.55 12.525,0 0,2.55 -12.75,0"/>
            <path fill="#F1F0EA" fill-opacity="1" fill-rule="evenodd" stroke="none" d="m 43.162712,161.19449 0.15,-2.325 12.525,0 -0.15,2.55 -12.15,0 -0.375,-0.225"/>
        </symbol>
        <symbol id="Freibad" viewBox="117.23046875 112.59375 77.3984375 77.4765625">
            <path fill="#F1F0EA" fill-opacity="1" fill-rule="evenodd" stroke="none" d="m 190.505,166.21949 0,4.2 -0.9,0.375 -1.05,0.45 -2.025,0.45 -1.95,0.225 -1.725,-0.225 -1.725,-0.45 -2.475,-0.825 -1.725,-0.675 -1.725,-0.225 -1.95,0.225 -1.8,0.675 -2.175,0.825 -1.95,0.45 -1.8,0.225 -1.95,-0.225 -1.725,-0.45 -2.175,-0.825 -1.8,-0.675 -1.95,-0.225 -1.725,0.225 -2.025,0.675 -2.175,0.825 -1.725,0.45 -1.95,0.225 -1.8,-0.225 -1.95,-0.45 -2.175,-0.825 -1.725,-0.675 -2.025,-0.225 -1.725,0.225 -1.725,0.675 -2.4,0.825 -1.8,0.45 -1.725,0.225 -1.95,-0.225 -1.8,-0.45 -1.05,-0.45 -1.125,-0.375 0,-4.2 1.125,0.45 1.05,0.45 1.8,0.45 1.95,0.225 1.725,-0.225 1.8,-0.45 2.4,-0.9 1.725,-0.675 3.75,0 1.725,0.675 2.175,0.9 1.95,0.45 1.8,0.225 1.95,-0.225 1.725,-0.45 2.175,-0.9 2.025,-0.675 3.675,0 1.8,0.675 2.175,0.9 1.725,0.45 1.95,0.225 1.8,-0.225 1.95,-0.45 2.175,-0.9 1.8,-0.675 3.675,0 1.725,0.675 2.475,0.9 1.725,0.45 1.725,0.225 1.95,-0.225 2.025,-0.45 1.05,-0.45 0.9,-0.45"/>
            <path fill="#F1F0EA" fill-opacity="1" fill-rule="evenodd" stroke="none" d="m 190.505,173.86949 0,4.2 -0.9,0.45 -1.05,0.375 -2.025,0.675 -1.95,0.225 -1.725,-0.225 -1.725,-0.675 -2.475,-0.825 -1.725,-0.45 -1.725,-0.225 -1.95,0.225 -1.8,0.45 -2.175,0.825 -1.95,0.675 -1.8,0.225 -1.95,-0.225 -1.725,-0.675 -2.175,-0.825 -1.8,-0.45 -1.95,-0.225 -1.725,0.225 -2.025,0.45 -2.175,0.825 -1.725,0.675 -1.95,0.225 -1.8,-0.225 -1.95,-0.675 -2.175,-0.825 -1.725,-0.45 -2.025,-0.225 -1.725,0.225 -1.725,0.45 -2.4,0.825 -1.8,0.675 -1.725,0.225 -1.95,-0.225 -1.8,-0.675 -1.05,-0.375 -1.125,-0.45 0,-4.2 1.125,0.45 1.05,0.45 1.8,0.675 1.95,0.225 1.725,-0.225 4.2,-1.575 1.725,-0.45 1.725,-0.15 2.025,0.15 1.725,0.45 2.175,0.9 1.95,0.675 1.8,0.225 1.95,-0.225 1.725,-0.675 2.175,-0.9 2.025,-0.45 1.725,-0.15 1.95,0.15 1.8,0.45 2.175,0.9 1.725,0.675 1.95,0.225 1.8,-0.225 1.95,-0.675 2.175,-0.9 1.8,-0.45 1.95,-0.15 1.725,0.15 1.725,0.45 2.475,0.9 1.725,0.675 1.725,0.225 1.95,-0.225 2.025,-0.675 1.05,-0.45 0.9,-0.45"/>
            <path fill="#F1F0EA" fill-opacity="1" fill-rule="evenodd" stroke="none" d="m 190.505,181.74449 0,4.2 -0.9,0.45 -1.05,0.45 -2.025,0.375 -1.95,0.225 -1.725,-0.225 -1.725,-0.375 -2.475,-0.9 -1.725,-0.675 -1.725,-0.225 -1.95,0.225 -1.8,0.675 -2.175,0.9 -1.95,0.375 -1.8,0.225 -1.95,-0.225 -1.725,-0.375 -2.175,-0.9 -1.8,-0.675 -1.95,-0.225 -1.725,0.225 -2.025,0.675 -2.175,0.9 -1.725,0.375 -1.95,0.225 -1.8,-0.225 -1.95,-0.375 -2.175,-0.9 -1.725,-0.675 -2.025,-0.225 -1.725,0.225 -1.725,0.675 -2.4,0.9 -1.8,0.375 -1.725,0.225 -1.95,-0.225 -1.8,-0.375 -1.05,-0.45 -1.125,-0.45 0,-4.2 1.125,0.45 1.05,0.45 1.8,0.45 1.95,0.225 1.725,-0.225 1.8,-0.45 2.4,-0.9 1.725,-0.6 1.725,-0.225 2.025,0.225 1.725,0.6 2.175,0.9 1.95,0.45 1.8,0.225 1.95,-0.225 1.725,-0.45 2.175,-0.9 2.025,-0.6 1.725,-0.225 1.95,0.225 1.8,0.6 2.175,0.9 1.725,0.45 1.95,0.225 1.8,-0.225 1.95,-0.45 2.175,-0.9 1.8,-0.6 1.95,-0.225 1.725,0.225 1.725,0.6 2.475,0.9 1.725,0.45 1.725,0.225 1.95,-0.225 2.025,-0.45 1.05,-0.45 0.9,-0.45"/>
            <path fill="#F1F0EA" fill-opacity="1" fill-rule="nonzero" stroke="none" d="m 126.83,163.81949 -0.9,0 -0.6,-0.225 -0.675,-0.225 -0.45,-0.45 -0.45,-0.6 -0.45,-0.675 -0.225,-0.675 0,-1.5 0.225,-0.675 0.45,-0.45 0.45,-0.675 0.45,-0.45 0.675,-0.375 0.6,-0.225 0.9,0 0,7.2 z m 0,-7.2 29.775,0 0,7.2 -29.775,0 0,-7.2 z m 31.95,6.3 -1.125,0.675 -1.05,0.225 0,-3.525 2.175,2.625 z m -4.575,-5.475 17.025,-14.625 4.8,5.7 -17.25,14.4 -4.575,-5.475 z m 17.025,-14.625 0.675,-0.225 0.675,-0.45 1.95,0 0.675,0.225 0.675,0.45 0.375,0.375 -2.625,2.475 -2.4,-2.85 z m 5.025,0.375 10.275,11.175 -5.4,5.1 -10.125,-11.4 5.25,-4.875 z m 10.275,11.175 0.9,1.35 0,1.95 -0.225,0.9 -0.45,0.45 -0.375,0.675 -0.675,0.375 -0.675,0.225 -0.675,0.225 -1.275,0 -0.675,-0.225 -0.675,-0.45 -0.6,-0.375 5.4,-5.1"/>
            <path fill="#F1F0EA" fill-opacity="1" fill-rule="evenodd" stroke="none" d="m 151.13,136.89449 1.5,0.225 1.575,0.45 1.275,0.6 1.125,1.125 0.825,1.125 0.675,1.275 0.45,1.5 0.225,1.575 -0.225,1.5 -0.45,1.35 -0.675,1.275 -0.825,1.35 -1.125,0.9 -1.275,0.6 -1.575,0.45 -1.5,0.225 -1.575,-0.225 -1.5,-0.45 -1.35,-0.6 -1.05,-0.9 -1.125,-1.35 -0.6,-1.275 -0.45,-1.35 -0.225,-1.5 0.225,-1.575 0.45,-1.5 0.6,-1.275 1.125,-1.125 1.05,-1.125 1.35,-0.6 1.5,-0.45 1.575,-0.225"/>
        </symbol>
        <symbol id="Gewerbegebiet" viewBox="211.453125 117.94140625 77.3984375 77.3984375">
            <path fill="#F1F0EA" fill-opacity="1" fill-rule="evenodd" stroke="none" d="m 217.00153,184.69024 0,-28.05 16.5,8.7 0,-8.7 16.65,8.7 0,-8.7 16.5,8.7 0,-8.7 16.65,8.7 0,19.35 -66.3,0 z M 0 0 m 221.50153,171.49024 16.65,0 0,9.6 -16.65,0 0,-9.6 z m 20.4,0 16.5,0 0,9.6 -16.5,0 0,-9.6 z m 20.25,0 16.65,0 0,9.6 -16.65,0 0,-9.6 z"/>
            <path fill="#F1F0EA" fill-opacity="1" fill-rule="evenodd" stroke="none" d="m 239.35153,124.69024 4.65,0 1.35,36.9 -7.2,-3.9 1.2,-33 z m 16.65,5.1 4.65,0 1.35,31.8 -7.2,-3.9 1.2,-27.9"/>
        </symbol>
        <symbol id="Krankenhaus" viewBox="302.1015625 123.58203125 72.6015625 72.75">
            <path fill="#F1F0EA" fill-opacity="1" fill-rule="evenodd" stroke="none" d="m 331.27627,189.1329 0,-14.025 -14.175,0 0,-14.25 14.175,0 0,-14.025 14.25,0 0,14.025 14.175,0 0,14.25 -14.175,0 0,14.025 -14.25,0"/>
            <path fill="#F1F0EA" fill-opacity="1" fill-rule="evenodd" stroke="none" d="m 305.47627,151.4079 0,-9.375 33,-14.25 33.075,14.25 0,9.375 -33.075,-14.175 -33,14.175"/>
        </symbol>
        <symbol id="Museum" viewBox="406.49609375 118.8359375 81.44921875 71.625">
            <path fill="#F1F0EA" fill-opacity="1" fill-rule="evenodd" stroke="none" d="m 447.4455,118.83715 -37.95,16.95 75.45,0 -37.5,-16.95"/>
            <path fill="#F1F0EA" fill-opacity="1" fill-rule="nonzero" stroke="none" d="m 421.3455,137.73715 10.35,0 0,36.975 -10.35,0 0,-36.975 z"/>
            <path fill="#F1F0EA" fill-opacity="1" fill-rule="nonzero" stroke="none" d="m 442.1955,137.73715 10.35,0 0,36.975 -10.35,0 0,-36.975 z"/>
            <path fill="#F1F0EA" fill-opacity="1" fill-rule="nonzero" stroke="none" d="m 462.5955,137.73715 10.2,0 0,36.975 -10.2,0 0,-36.975 z"/>
            <path fill="#F1F0EA" fill-opacity="1" fill-rule="nonzero" stroke="none" d="m 414.7455,176.96215 64.95,0 0,5.25 -64.95,0 0,-5.25 z"/>
            <path fill="#F1F0EA" fill-opacity="1" fill-rule="evenodd" stroke="none" d="m 410.9955,184.91215 -4.5,5.55 81.45,0 -4.05,-5.55 -72.9,0"/>
        </symbol>
        <symbol id="Schloss" viewBox="0 0 100 100">
            <path fill="#F1F0EA" fill-opacity="1" fill-rule="nonzero" stroke="none" d="m 81.930565,1.3254319 0,1.5229519 -1.342409,0 0,2.6620759 -1.342409,0 0,2.8527534 -1.532047,0 0,2.6620749 -0.958153,0 -0.384256,2.471398 -1.339919,0 0,2.664548 -0.958152,0 0,2.662075 -1.534537,0.190678 0,2.662075 -1.339919,0 0,2.471398 -1.724175,0 0,2.662075 -1.15028,0 0,2.664547 -1.34241,0 0,2.852753 3.258713,0 0,5.133474 0,0.381356 0,8.176904 -7.28345,0 0,-8.176904 -6.322807,0 0,8.176904 -9.581519,0 0,-8.176904 -5.364656,0 0,8.176904 -7.28345,0 0,-20.159952 5.941042,0 0,-20.3481573 -6.514936,0 0,7.7980193 -9.389392,0 0,-7.7980193 -5.94104,0 0,7.7980193 -9.3893912,0 0,-7.7980193 -7.2834506,0 0,20.3481573 5.9410404,0 0,72.081547 26.2593564,0 -0.005,0.378882 4.980397,0 0,-23.963622 9.391884,-9.3185 3.832607,0 4.214375,3.424788 5.367146,5.705507 0.189637,23.772945 8.241603,0 0.192129,0 24.527694,0 0,-65.613329 3.64048,0 -0.381766,-2.664546 -0.958152,0 -0.384258,-2.852754 -1.342409,0 0,-2.662075 -1.147789,0 0,-2.471398 -1.534538,0 0,-2.662075 -1.532048,0 0,-2.852753 -1.342408,0 0,-2.664548 -1.339918,0 0,-2.471398 -1.150282,0 0,-3.0434316 -1.342409,0 -0.381765,-2.4713967 -0.958152,0 -0.384259,-2.6620759 -0.958151,0 0,-1.5229519 -1.532046,0 z M 17.73438,33.656638 l 7.854853,0 0,10.650774 -7.854853,0 0,-10.650774 z m 59.97932,0 7.857344,0 0,10.650774 -7.857344,0 0,-10.650774 z m -60.171449,26.816376 7.857346,0 0,10.650774 -7.857346,0 0,-10.650774 z m 59.787192,0.381356 7.857345,0 0,10.6483 -7.857345,0 0,-10.6483 z"/>
        </symbol>
        <symbol id="Aussichtspunkt" viewBox="0 0 100 100">
            <circle cx="50" cy="50" r="5" fill="#F1F0EA" stroke="none"/>
            <path fill="#F1F0EA" fill-opacity="1" fill-rule="nonzero" stroke="none" d="m 39.113442,49.887826 c 0.114875,0.06912 -9.635015,2.510527 -21.458641,4.427722 -2.695191,0.437025 -16.5930228,3.60815 -16.5865657,-4.272939 0.00661,-8.064717 14.0729807,-4.86886 17.2695947,-4.268584 11.266386,2.115657 20.660738,4.044686 20.775612,4.113801 z"/>
            <path fill="#F1F0EA" fill-opacity="1" fill-rule="nonzero" stroke="none" d="m 39.113442,49.887826 c 0.114875,0.06912 -9.635015,2.510527 -21.458641,4.427722 -2.695191,0.437025 -16.5930228,3.60815 -16.5865657,-4.272939 0.00661,-8.064717 14.0729807,-4.86886 17.2695947,-4.268584 11.266386,2.115657 20.660738,4.044686 20.775612,4.113801 z" transform="rotate(45 50 50)"/>
            <path fill="#F1F0EA" fill-opacity="1" fill-rule="nonzero" stroke="none" d="m 39.113442,49.887826 c 0.114875,0.06912 -9.635015,2.510527 -21.458641,4.427722 -2.695191,0.437025 -16.5930228,3.60815 -16.5865657,-4.272939 0.00661,-8.064717 14.0729807,-4.86886 17.2695947,-4.268584 11.266386,2.115657 20.660738,4.044686 20.775612,4.113801 z" transform="rotate(90 50 50)"/>
            <path fill="#F1F0EA" fill-opacity="1" fill-rule="nonzero" stroke="none" d="m 39.113442,49.887826 c 0.114875,0.06912 -9.635015,2.510527 -21.458641,4.427722 -2.695191,0.437025 -16.5930228,3.60815 -16.5865657,-4.272939 0.00661,-8.064717 14.0729807,-4.86886 17.2695947,-4.268584 11.266386,2.115657 20.660738,4.044686 20.775612,4.113801 z" transform="rotate(135 50 50)"/>
            <path fill="#F1F0EA" fill-opacity="1" fill-rule="nonzero" stroke="none" d="m 39.113442,49.887826 c 0.114875,0.06912 -9.635015,2.510527 -21.458641,4.427722 -2.695191,0.437025 -16.5930228,3.60815 -16.5865657,-4.272939 0.00661,-8.064717 14.0729807,-4.86886 17.2695947,-4.268584 11.266386,2.115657 20.660738,4.044686 20.775612,4.113801 z" transform="rotate(180 50 50)"/>
            <path fill="#F1F0EA" fill-opacity="1" fill-rule="nonzero" stroke="none" d="m 39.113442,49.887826 c 0.114875,0.06912 -9.635015,2.510527 -21.458641,4.427722 -2.695191,0.437025 -16.5930228,3.60815 -16.5865657,-4.272939 0.00661,-8.064717 14.0729807,-4.86886 17.2695947,-4.268584 11.266386,2.115657 20.660738,4.044686 20.775612,4.113801 z" transform="rotate(225 50 50)"/>
            <path fill="#F1F0EA" fill-opacity="1" fill-rule="nonzero" stroke="none" d="m 39.113442,49.887826 c 0.114875,0.06912 -9.635015,2.510527 -21.458641,4.427722 -2.695191,0.437025 -16.5930228,3.60815 -16.5865657,-4.272939 0.00661,-8.064717 14.0729807,-4.86886 17.2695947,-4.268584 11.266386,2.115657 20.660738,4.044686 20.775612,4.113801 z" transform="rotate(270 50 50)"/>
            <path fill="#F1F0EA" fill-opacity="1" fill-rule="nonzero" stroke="none" d="m 39.113442,49.887826 c 0.114875,0.06912 -9.635015,2.510527 -21.458641,4.427722 -2.695191,0.437025 -16.5930228,3.60815 -16.5865657,-4.272939 0.00661,-8.064717 14.0729807,-4.86886 17.2695947,-4.268584 11.266386,2.115657 20.660738,4.044686 20.775612,4.113801 z" transform="rotate(315 50 50)"/>
        </symbol>
        <symbol id="Historischer_Ortskern" viewBox="119.03515625 205.84765625 81.75 70.125">
            <path fill="#F1F0EA" fill-opacity="1" fill-rule="nonzero" stroke="none" d="m 119.33619,240.57129 25.35,0 0,19.05 -25.35,0 0,-19.05 z"/>
            <path fill="#ffffff" fill-opacity="1" fill-rule="nonzero" stroke="none" d="m 128.63619,247.17129 5.7,0 0,6.6 -5.7,0 0,-6.6 z"/>
            <path fill="#F1F0EA" fill-opacity="1" fill-rule="evenodd" stroke="none" d="m 129.68619,205.84629 0,5.4 -3.3,0 0,5.4 -3,0 0,4.2 -4.35,0 0,17.775 25.65,0 0,-17.775 -4.35,0 0,-4.2 -3.3,0 0,-5.4 -4.05,0 0,-5.4 -3.3,0"/>
            <path fill="#ffffff" fill-opacity="1" fill-rule="nonzero" stroke="none" d="m 128.63619,223.69629 5.4,0 0,6.6 -5.4,0 0,-6.6 z"/>
            <path fill="#F1F0EA" fill-opacity="1" fill-rule="evenodd" stroke="none" d="m 119.33619,261.87129 0,13.8 32.7,0 4.05,-9.75 0,-4.05 -36.75,0"/>
            <path fill="#F1F0EA" fill-opacity="1" fill-rule="evenodd" stroke="none" d="m 159.38619,247.17129 0,20.1 -4.35,8.7 45.45,-0.3 0,-28.5 -41.1,0"/>
            <path fill="#ffffff" fill-opacity="1" fill-rule="nonzero" stroke="none" d="m 167.78619,250.32129 3.3,0 0,4.35 -3.3,0 0,-4.35 z"/>
            <path fill="#ffffff" fill-opacity="1" fill-rule="nonzero" stroke="none" d="m 181.43619,250.32129 3.3,0 0,4.35 -3.3,0 0,-4.35 z"/>
            <path fill="#ffffff" fill-opacity="1" fill-rule="nonzero" stroke="none" d="m 195.38619,250.32129 3.3,0 0,4.35 -3.3,0 0,-4.35 z"/>
            <path fill="#F1F0EA" fill-opacity="1" fill-rule="evenodd" stroke="none" d="m 147.68619,232.54629 0,27.075 8.4,0 0,-15.75 44.7,0 0,-12.375 -13.05,0 0,-5.25 -12.45,0 0,10.35 -2.25,0 -9.15,-19.95 -7.35,14.85 -3,-6.45 -3.3,7.5 -2.55,0"/>
        </symbol>
        <symbol id="Flughafen" viewBox="10 10 130 130">
            <path fill="#F1F0EA" fill-rule="evenodd" stroke="none" d="M 90.000000,140.00000 L 102.50000,140.00000 L 77.500000,81.875000 L 120.00000,80.000000 L 132.50000,97.500000 L 140.00000,97.500000 L 135.00000,75.000000 L 140.00000,52.500000 L 132.50000,52.500000 L 120.00000,70.000000 L 77.500000,68.125000 L 102.50000,10.000000 L 90.000000,10.000000 L 47.814238,67.074953 C 40.626931,66.941654 33.438543,66.875000 26.250000,66.875000 L 26.250000,66.875000 C 20.444434,66.875000 15.079870,68.423616 12.177087,70.937500 C 9.2743043,73.451384 9.2743043,76.548616 12.177087,79.062500 C 15.079870,81.576384 20.444434,83.125000 26.250000,83.125000 L 26.250000,83.125000 C 33.438543,83.125000 40.626931,83.058346 47.814238,82.925047 L 90.000000,140.00000 z "/>
        </symbol>
        <symbol id="Fähre" viewBox="209.07047381249998 174.27233624999997 78.2958984375 79.3505859375">
            <path fill="#F1F0EA" fill-opacity="1" fill-rule="nonzero" d="m 220.09372,214.24968 -8.55,0.15 5.025,16.125 2.775,-0.975 4.725,-1.2 2.325,-1.05 1.95,0.15 2.925,1.05 2.55,1.05 2.775,0.975 3.375,0 1.5,-1.125 5.7,-1.65 2.7,-0.3 3.675,1.5 3.225,1.575 4.275,0 3.225,-2.025 5.475,-0.75 2.325,0.75 3.825,1.05 1.95,1.125 3.375,0.3 1.575,-1.575 0.6,-4.275 1.2,-4.875 -48.9,-0.3 -0.15,-15.675 -10.275,0 -5.175,9.975"/>
            <path fill="#F1F0EA" fill-opacity="1" fill-rule="nonzero" stroke="" d="m 220.09372,214.24968 -8.55,0.15 5.025,16.125 2.775,-0.975 4.725,-1.2 2.325,-1.05 1.95,0.15 2.925,1.05 2.55,1.05 2.775,0.975 3.375,0 1.5,-1.125 5.7,-1.65 2.7,-0.3 3.675,1.5 3.225,1.575 4.275,0 3.225,-2.025 5.475,-0.75 2.325,0.75 3.825,1.05 1.95,1.125 3.375,0.3 1.575,-1.575 0.6,-4.275 1.2,-4.875 -48.9,-0.3 -0.15,-15.675 -10.275,0 -5.175,9.975 z"/>
            <path fill="#F1F0EA" fill-opacity="1" fill-rule="nonzero" d="m 211.69372,232.17468 0,5.325 2.4,0.975 2.325,0.3 3.375,-0.75 2.475,-1.275 2.85,-0.75 2.625,-0.3 2.25,0.3 2.025,1.2 1.8,0.825 1.275,0.3 5.175,0.15 2.475,-1.425 3.15,-0.9 3.825,-0.3 2.325,0.9 2.175,0.9 0.9,0.825 6.525,0 1.875,-1.575 1.95,-0.6 2.325,-0.75 2.325,0.6 3.15,0.75 2.175,1.425 2.25,0.6 3.375,-0.15 3.075,-0.6 0.6,-0.15 -0.15,-5.85 -2.1,1.2 -2.175,0.3 -2.475,0 -2.25,-0.6 -2.625,-1.5 -3,-1.05 -1.725,-0.225 -2.25,0.975 -2.625,0.75 -2.625,1.2 -3.375,0.15 -3.675,-1.35 -2.7,-1.2 -2.325,-0.525 -2.25,0.375 -3.225,1.2 -3.075,1.05 -2.325,0.45 -3,-0.45 -2.925,-1.35 -2.925,-1.275 -3.675,0 -2.1,1.125 -2.475,0.75 -4.425,1.2 -1.35,-0.3 -3.225,-0.9"/>
            <path fill="#F1F0EA" fill-opacity="1" fill-rule="nonzero" d="m 211.69372,232.17468 0,5.325 2.4,0.975 2.325,0.3 3.375,-0.75 2.475,-1.275 2.85,-0.75 2.625,-0.3 2.25,0.3 2.025,1.2 1.8,0.825 1.275,0.3 5.175,0.15 2.475,-1.425 3.15,-0.9 3.825,-0.3 2.325,0.9 2.175,0.9 0.9,0.825 6.525,0 1.875,-1.575 1.95,-0.6 2.325,-0.75 2.325,0.6 3.15,0.75 2.175,1.425 2.25,0.6 3.375,-0.15 3.075,-0.6 0.6,-0.15 -0.15,-5.85 -2.1,1.2 -2.175,0.3 -2.475,0 -2.25,-0.6 -2.625,-1.5 -3,-1.05 -1.725,-0.225 -2.25,0.975 -2.625,0.75 -2.625,1.2 -3.375,0.15 -3.675,-1.35 -2.7,-1.2 -2.325,-0.525 -2.25,0.375 -3.225,1.2 -3.075,1.05 -2.325,0.45 -3,-0.45 -2.925,-1.35 -2.925,-1.275 -3.675,0 -2.1,1.125 -2.475,0.75 -4.425,1.2 -1.35,-0.3 -3.225,-0.9 z"/>
            <path fill="#F1F0EA" fill-opacity="1" fill-rule="nonzero" d="m 211.54372,240.12468 0,5.4 2.4,0.9 2.325,0.3 3.375,-0.75 2.4,-1.275 2.925,-0.75 2.625,-0.3 2.25,0.3 2.025,1.275 1.8,0.75 1.275,0.3 5.175,0.15 2.475,-1.425 3.15,-0.9 3.825,-0.3 2.325,0.9 2.175,0.975 0.9,0.75 6.525,0 1.875,-1.575 1.95,-0.6 2.325,-0.6 2.325,0.45 3.15,0.75 2.175,1.425 2.25,0.6 3.375,-0.15 3.075,-0.6 0.6,-0.15 -0.15,-5.85 -2.1,1.2 -2.175,0.375 -2.475,0 -2.25,-0.675 -2.625,-1.5 -3.075,-1.05 -1.65,-0.15 -2.325,0.9 -2.55,0.75 -2.625,1.2 -3.375,0.15 -3.675,-1.35 -2.7,-1.2 -2.325,-0.45 -2.25,0.3 -3.225,1.2 -3.075,1.05 -2.325,0.45 -3,-0.45 -2.925,-1.35 -2.925,-1.2 -3.675,0 -2.1,1.05 -2.475,0.75 -4.425,1.2 -1.35,-0.3 -3.225,-0.9"/>
            <path fill="#F1F0EA" fill-opacity="1" fill-rule="nonzero" d="m 211.54372,240.12468 0,5.4 2.4,0.9 2.325,0.3 3.375,-0.75 2.4,-1.275 2.925,-0.75 2.625,-0.3 2.25,0.3 2.025,1.275 1.8,0.75 1.275,0.3 5.175,0.15 2.475,-1.425 3.15,-0.9 3.825,-0.3 2.325,0.9 2.175,0.975 0.9,0.75 6.525,0 1.875,-1.575 1.95,-0.6 2.325,-0.6 2.325,0.45 3.15,0.75 2.175,1.425 2.25,0.6 3.375,-0.15 3.075,-0.6 0.6,-0.15 -0.15,-5.85 -2.1,1.2 -2.175,0.375 -2.475,0 -2.25,-0.675 -2.625,-1.5 -3.075,-1.05 -1.65,-0.15 -2.325,0.9 -2.55,0.75 -2.625,1.2 -3.375,0.15 -3.675,-1.35 -2.7,-1.2 -2.325,-0.45 -2.25,0.3 -3.225,1.2 -3.075,1.05 -2.325,0.45 -3,-0.45 -2.925,-1.35 -2.925,-1.2 -3.675,0 -2.1,1.05 -2.475,0.75 -4.425,1.2 -1.35,-0.3 -3.225,-0.9 z"/>
            <path fill="#F1F0EA" fill-opacity="1" fill-rule="evenodd" d="m 245.29372,206.59968 1.275,0.15 1.2,0.3 0.9,0.6 0.9,0.825 0.825,0.9 0.6,0.9 0.3,1.2 0.15,1.275 -0.15,1.2 -0.3,1.05 -0.6,1.125 -0.825,0.9 -0.9,0.75 -0.9,0.6 -1.2,0.3 -1.275,0.15 -1.2,-0.15 -1.05,-0.3 -1.125,-0.6 -0.9,-0.75 -0.75,-0.9 -0.6,-1.125 -0.3,-1.05 -0.15,-1.2 0.15,-1.275 0.3,-1.2 0.6,-0.9 0.75,-0.9 0.9,-0.825 1.125,-0.6 1.05,-0.3 1.2,-0.15 z m 0,-1.5 1.575,0.15 1.35,0.45 1.35,0.75 1.125,0.9 0.9,1.125 0.75,1.35 0.45,1.35 0.15,1.575 -0.15,1.5 -0.45,1.35 -0.75,1.425 -0.9,1.05 -1.125,0.9 -1.35,0.825 -1.35,0.45 -1.575,0.15 -1.5,-0.15 -1.35,-0.45 -1.425,-0.825 -1.05,-0.9 -0.9,-1.05 -0.75,-1.425 -0.525,-1.35 -0.15,-1.5 0.15,-1.575 0.525,-1.35 0.75,-1.35 0.9,-1.125 1.05,-0.9 1.425,-0.75 1.35,-0.45 1.5,-0.15"/>
            <path fill="#F1F0EA" fill-opacity="1" fill-rule="evenodd" d="m 273.11872,206.59968 1.275,0.15 1.05,0.3 1.05,0.6 0.9,0.825 0.825,0.9 0.45,0.9 0.45,1.2 0.15,1.275 -0.15,1.2 -0.45,1.05 -0.45,1.125 -0.825,0.9 -0.9,0.75 -1.05,0.6 -1.05,0.3 -1.275,0.15 -1.2,-0.15 -1.2,-0.3 -1.125,-0.6 -0.75,-0.75 -0.75,-0.9 -0.6,-1.125 -0.3,-1.05 -0.15,-1.2 0.15,-1.275 0.3,-1.2 0.6,-0.9 0.75,-0.9 0.75,-0.825 1.125,-0.6 1.2,-0.3 1.2,-0.15 z m 0,-1.5 1.575,0.15 1.35,0.45 1.35,0.75 1.125,0.9 0.9,1.125 0.75,1.35 0.3,1.35 0.15,1.575 -0.15,1.5 -0.3,1.35 -0.75,1.425 -0.9,1.05 -1.125,0.9 -1.35,0.825 -1.35,0.45 -1.575,0.15 -1.5,-0.15 -1.5,-0.45 -1.275,-0.825 -1.05,-0.9 -1.05,-1.05 -0.6,-1.425 -0.525,-1.35 -0.15,-1.5 0.15,-1.575 0.525,-1.35 0.6,-1.35 1.05,-1.125 1.05,-0.9 1.275,-0.75 1.5,-0.45 1.5,-0.15"/>
            <path fill="#F1F0EA" fill-opacity="1" fill-rule="evenodd" d="m 254.21872,197.44968 -2.175,0 -0.6,0.15 -0.45,0.6 -0.3,0.6 -4.575,14.1 -0.225,0.3 -0.3,0.15 -0.45,0 -0.3,-0.15 -0.15,-0.3 -0.15,-0.15 0,-0.3 4.575,-14.1 0.3,-0.6 0.45,-0.825 0.525,-0.45 0.75,-0.3 1.5,-0.3 1.575,0 0.3,0.15 0.3,0.15 0.15,0.15 0,0.6 -0.15,0.3 -0.3,0.225 -0.3,0"/>
            <path fill="#F1F0EA" fill-opacity="1" fill-rule="evenodd" d="m 250.39372,200.44968 16.8,0 0.6,0.3 0.15,0.15 0,0.675 -0.15,0.3 -0.3,0.15 -17.625,0 -0.45,-0.45 0,-0.675 0.3,-0.15 0.15,-0.15 0.525,-0.15"/>
            <path fill="#F1F0EA" fill-opacity="1" fill-rule="evenodd" d="m 250.39372,201.87468 9.9,11.025 0.15,0.3 0,0.3 -0.15,0.3 -0.3,0.3 -0.3,0.15 -0.3,-0.15 -0.3,-0.15 -9.975,-11.025 -0.15,-0.3 0,-0.6 0.3,-0.15 0.15,-0.15 0.3,-0.15 0.375,0.15 0.3,0.15"/>
            <path fill="#F1F0EA" fill-opacity="1" fill-rule="evenodd" d="m 259.99372,212.59968 13.275,0.15 0.45,0 0.15,0.15 0.375,0.3 0,0.6 -0.375,0.15 -0.15,0.15 -0.45,0.15 -13.275,-0.15 -0.45,0 -0.45,-0.45 0,-0.6 0.3,-0.15 0.15,-0.15 0.45,-0.15"/>
            <path fill="#F1F0EA" fill-opacity="1" fill-rule="evenodd" d="m 268.69372,200.89968 5.55,12.3 0,0.45 -0.15,0.3 -0.375,0.15 -0.3,0.15 -0.3,-0.15 -0.3,-0.3 -5.475,-12.225 -0.15,-0.3 0.15,-0.375 0.15,-0.15 0.15,-0.3 0.6,0 0.3,0.15 0.15,0.3"/>
            <path fill="#F1F0EA" fill-opacity="1" fill-rule="evenodd" d="m 262.01872,213.19968 5.775,-14.7 0.15,-0.15 0.6,-0.3 0.3,0.15 0.3,0.3 0.15,0.3 -0.15,0.3 -5.625,14.55 -0.45,0.45 -0.6,0 -0.3,-0.15 -0.15,-0.3 0,-0.45"/>
            <path fill="#F1F0EA" fill-opacity="1" fill-rule="evenodd" d="m 271.01872,197.44968 0,1.65 -3.375,0 -1.875,-0.45 -1.65,-0.6 -0.15,-0.15 0,-0.15 0.15,-0.3 6.9,0"/>
            <path fill="#F1F0EA" fill-opacity="1" fill-rule="evenodd" d="m 257.36872,177.94968 0.825,0 0.6,0.15 0.6,0.3 0.45,0.3 0.45,0.525 0.45,0.6 0.15,0.6 0.15,0.75 0,0.6 -0.15,0.6 -0.15,0.675 -0.45,0.6 -0.45,0.45 -1.2,0.6 -0.6,0.15 -0.825,0 -0.6,-0.15 -0.6,-0.3 -0.45,-0.3 -0.45,-0.45 -0.45,-0.6 -0.15,-0.675 -0.15,-0.75 0,-0.6 0.15,-0.6 0.6,-1.2 0.45,-0.525 1.2,-0.6 0.6,-0.15 z m 7.05,23.325 0.15,2.55 2.175,6.3 4.425,4.725 0.45,0.6 0.15,0.525 0,1.2 -0.15,0.6 -0.3,0.6 -0.3,0.45 -0.45,0.45 -6.45,-6.825 -2.925,-7.5 -3.825,13.275 -0.45,0.75 -0.45,0.675 -1.5,0.6 -0.75,0.15 -0.975,0 0,-0.3 4.425,-16.275 0,-2.55 -0.3,-5.85 -3.3,1.5 -0.675,0.15 -1.35,0 -0.6,-0.3 -0.45,-0.15 -0.3,-0.3 0,-0.3 0.15,-0.15 5.775,-3.075 0.15,-2.4 0.45,-2.325 0.3,-1.05 0.675,-0.825 0.45,-0.15 0.45,-0.3 0.45,-0.15 0.6,0 0.9,0.15 0.75,0.45 0.675,0.675 0.3,0.75 0.6,1.65 0.15,1.575 0.9,10.425"/>
            <path fill="#F1F0EA" fill-opacity="1" fill-rule="evenodd" stroke="#339966" stroke-dasharray="none" stroke-linecap="round" stroke-linejoin="round" stroke-miterlimit="10" stroke-opacity="1" stroke-width="0.9375" d="m 207.86872,173.07468 79.725,0 0,81.75 -79.725,0 0,-81.75 z"/>
        </symbol>
        <symbol id="Schutzhütte" viewBox="36.5234375 1544.66015625 360.74609375 372.90625">
            <path fill="#ffffff" fill-opacity="1" fill-rule="nonzero" stroke="red" stroke-width="20" d="m 36.522989,1544.6583 360.745661,0 0,372.908 -360.745661,0 0,-372.908 z"/>
        </symbol>
        <symbol id="Haltestelle" viewBox="0 0 100 100">
            <path fill="none" stroke="#F1F0EA" stroke-width="4" d="M 5,64 h 40 v -8 h 12 v -8 h 12 v -8 h 12 v -8 h 12"/>
        </symbol>
        <symbol id="Spielplatz" viewBox="16.29296875 13.98828125 673.6640625 673.5">
            <path fill="#F1F0EA" fill-opacity="1" d="M 319.55167,529.38731 c 0.65658,-28.83113 1.67529,-58.05657 2.26383,-64.94542 0.82632,-9.67249 0.51269,-12.52519 -1.37709,-12.52519 -1.34593,0 -14.71574,4.68815 -29.71067,10.4181 l -27.26353,10.41811 -1.28186,12.76428 c -1.80264,17.94981 -10.57423,27.63376 -25.0303,27.63376 -10.48226,0 -22.267,-9.29502 -22.267,-17.56276 0,-1.56676 -1.00402,-2.84866 -2.23113,-2.84866 -1.22712,0 -27.84975,9.60265 -59.1614,21.33921 -31.31165,11.73657 -57.945609,21.33921 -59.186583,21.33921 -5.388347,0 -14.707046,-6.23986 -16.775175,-11.23277 -2.765101,-6.67554 -1.053098,-16.89112 3.525092,-21.03434 1.876268,-1.69799 32.546646,-14.02689 68.156406,-27.39754 35.60975,-13.37065 65.26083,-24.82995 65.89131,-25.46512 2.38273,-2.40049 3.42067,-13.21615 1.26831,-13.21615 -1.17236,0 -16.60357,5.42502 -34.29157,12.0556 -17.68801,6.63057 -35.77158,12.86498 -40.18574,13.85421 -15.98878,3.58315 -33.23481,-5.20109 -41.06646,-20.91718 -4.698051,-9.42775 -4.700396,-9.45872 -4.700396,-62.07861 l 0,-52.64615 5.444156,3.87657 c 17.81822,12.6877 45.34582,13.75897 67.38749,2.62246 l 8.81402,-4.45325 0,34.35954 c 0,18.89776 0.54382,34.35956 1.20849,34.35956 0.66467,0 15.06864,-5.07593 32.00881,-11.27985 36.44034,-13.34536 41.75776,-13.59985 51.94285,-2.48598 l 6.30008,6.87456 -1.15008,20.10067 -1.15007,20.10066 8.76799,-3.39332 c 4.82238,-1.86633 17.2647,-6.60939 27.64958,-10.54016 l 18.8816,-7.14684 1.22068,-10.51737 c 2.22915,-19.20651 12.60399,-29.53224 29.67271,-29.53224 10.7462,0 19.70074,4.62454 24.62118,12.71551 l 3.24803,5.34098 28.74382,-10.94163 c 15.80909,-6.01788 29.94136,-11.36905 31.40506,-11.89147 1.85998,-0.66385 -1.01042,-4.6991 -9.53339,-13.40212 -6.70706,-6.84875 -13.12345,-14.27617 -14.25866,-16.50536 -4.11557,-8.08173 -2.07381,-17.32315 5.72116,-25.89522 1.98562,-2.18357 17.31929,-9.28118 34.0748,-15.77246 16.75553,-6.49127 30.46616,-12.21983 30.46805,-12.73012 0.002,-0.51028 -9.95224,-12.16253 -22.1203,-25.89386 -12.16808,-13.73134 -21.71328,-25.63027 -21.21156,-26.44207 0.50171,-0.8118 2.74171,-1.52263 4.97777,-1.57966 6.04851,-0.1542 18.43672,-5.61655 27.95681,-12.32692 10.16405,-7.16427 18.68986,-18.51343 22.97815,-30.58737 1.74605,-4.9161 3.64363,-8.93837 4.21685,-8.93837 2.48903,0 66.12487,73.24157 69.0141,79.43168 6.78879,14.54484 3.04953,35.79285 -8.12088,46.14602 -4.2982,3.98374 -29.3174,14.75966 -61.87874,26.65158 -9.18513,3.35454 -17.33224,6.63705 -18.10468,7.29445 -0.77243,0.65741 1.22485,3.13918 4.43839,5.51505 l 5.8428,4.31978 54.96617,-20.66166 c 33.55227,-12.61222 57.62664,-20.66165 61.79525,-20.66165 10.58872,0 17.24175,6.7202 17.24175,17.41584 0,6.14761 -1.07615,9.5354 -3.93809,12.39732 -2.16931,2.16931 -25.50533,12.13598 -51.95634,22.19024 -33.39048,12.692 -47.78121,18.99781 -47.24016,20.69994 6.45485,20.30643 -3.05259,34.9205 -22.7181,34.9205 -9.63929,0 -10.80808,-0.52225 -20.12497,-8.99254 l -9.89135,-8.99255 -44.534,16.89626 -44.534,16.89623 0,29.67188 c 0,16.31952 0.62277,51.17342 1.38394,77.45312 l 1.38394,47.78128 -34.54046,0 -34.54045,0 1.19376,-52.42023 z"/>
            <path fill="#F1F0EA" fill-opacity="1" d="M 120.64937,319.69382 c -8.60612,-2.75766 -21.661707,-14.83292 -26.221827,-24.25289 -2.767838,-5.71759 -3.866579,-11.60899 -3.866579,-20.73245 0,-15.89635 4.456133,-25.83519 16.230016,-36.19898 26.66392,-23.47051 67.40427,-12.47004 78.36969,21.16094 3.0868,9.46727 1.49886,26.23344 -3.3927,35.82171 -4.95315,9.70897 -18.47317,21.56949 -27.75875,24.35151 -8.73909,2.6183 -24.94825,2.54549 -33.35985,-0.14975 z
				"/>
            <path fill="#F1F0EA" fill-opacity="1" d="M 426.69391,208.57413 c -37.18809,-6.75061 -52.13969,-52.63028 -25.94715,-79.61991 10.35015,-10.66512 20.06725,-14.66325 35.75856,-14.71295 28.00174,-0.0887 47.9839,19.1367 48.17329,46.34883 0.22005,31.62055 -26.46747,53.70524 -57.9847,47.98403 z"/>
        </symbol>
    </defs>
    <use width="100" height="100" x="560" y="10" xlink:href="#Bahnhof"/>
    <use width="100" height="100" x="670" y="10" xlink:href="#Tourist_Info"/>
    <use width="100" height="100" x="780" y="10" xlink:href="#Jugendherberge"/>
    <use width="100" height="100" x="890" y="10" xlink:href="#Hotel"/>
    <use width="100" height="100" x="450" y="10" xlink:href="#Gaststätte"/>
    <use width="100" height="100" x="560" y="120" xlink:href="#Campingplatz"/>
    <use width="100" height="100" x="670" y="120" xlink:href="#Stadion"/>
    <use width="100" height="100" x="780" y="120" xlink:href="#Freibad"/>
    <use width="100" height="100" x="890" y="120" xlink:href="#Gewerbegebiet"/>
    <use width="100" height="100" x="1000" y="120" xlink:href="#Krankenhaus"/>
    <use width="100" height="100" x="560" y="230" xlink:href="#Museum"/>
    <use width="100" height="100" x="670" y="230" xlink:href="#Schloss"/>
    <use width="100" height="100" x="780" y="230" xlink:href="#Aussichtspunkt"/>
    <use width="100" height="100" x="890" y="230" xlink:href="#Historischer_Ortskern"/>
    <use width="100" height="100" x="1000" y="230" xlink:href="#Flughafen"/>
    <use width="100" height="100" x="890" y="340" xlink:href="#Schutzhütte"/>
    <use width="100" height="100" x="1000" y="340" xlink:href="#Aussichtspunkt"/>
    <use width="100" height="100" x="890" y="450" xlink:href="#Haltestelle"/>
    <use width="100" height="100" x="1000" y="450" xlink:href="#Spielplatz"/>
    <use width="100" height="100" x="1110" y="450" xlink:href="#Fähre"/>
    <use id="use137" width="100" height="100" x="10" y="10" xlink:href="#noSym"/>
    <use id="use139" width="100" height="100" x="120" y="10" xlink:href="#Wegemarke-Lutherweg"/>
    <use id="use141" width="100" height="100" x="230" y="10" xlink:href="#Naturlehrpfad"/>
    <use width="100" height="100" x="340" y="10" xlink:href="#Geo-Pfad"/>
    <use width="100" height="100" x="450" y="10" xlink:href="#Rundroute"/>
    <use id="use143" width="100" height="100" x="10" y="120" xlink:href="#Hauptweg-Quadrat"/>
    <use id="use145" width="100" height="100" x="120" y="120" xlink:href="#Hauptweg-Dreieck"/>
    <use id="use147" width="100" height="100" x="230" y="120" xlink:href="#Hauptweg-Kreis"/>
    <use id="use149" width="100" height="100" x="340" y="120" xlink:href="#Hauptweg-Kreuz"/>
    <use id="use151" width="100" height="100" x="450" y="120" xlink:href="#Hauptweg-Balken"/>
    <use id="use153" width="100" height="100" x="10" y="230" xlink:href="#Gebietsweg-Quadrat"/>
    <use id="use155" width="100" height="100" x="120" y="230" xlink:href="#Gebietsweg-Dreieck"/>
    <use id="use157" width="100" height="100" x="230" y="230" xlink:href="#Gebietsweg-Kreis"/>
    <use id="use159" width="100" height="100" x="340" y="230" xlink:href="#Gebietsweg-Kreuz"/>
    <use id="use161" width="100" height="100" x="450" y="230" xlink:href="#Gebietsweg-Balken"/>
    <use id="use163" width="100" height="100" x="10" y="340" xlink:href="#Ortsweg-Quadrat"/>
    <use id="use165" width="100" height="100" x="120" y="340" xlink:href="#Ortsweg-Dreieck"/>
    <use id="use167" width="100" height="100" x="230" y="340" xlink:href="#Ortsweg-Kreis"/>
    <use id="use169" width="100" height="100" x="340" y="340" xlink:href="#Ortsweg-Kreuz"/>
    <use id="use171" width="100" height="100" x="450" y="340" xlink:href="#Ortsweg-Balken"/>
    <use id="use1701" width="100" height="100" x="560" y="340" xlink:href="#Ortsweg-Diagonal"/>
    <use id="use1710" width="100" height="100" x="670" y="340" xlink:href="#Ortsweg-Diagonal-Kreuz"/>
    <use id="use1711" width="100" height="100" x="780" y="340" xlink:href="#Ortsweg-Verbindungsweg"/>
    <use id="use173" width="100" height="100" x="10" y="450" xlink:href="#Rundweg-Quadrat"/>
    <use id="use175" width="100" height="100" x="120" y="450" xlink:href="#Rundweg-Dreieck"/>
    <use id="use177" width="100" height="100" x="230" y="450" xlink:href="#Rundweg-Kreis"/>
    <use id="use179" width="100" height="100" x="340" y="450" xlink:href="#Rundweg-Kreuz"/>
    <use id="use181" width="100" height="100" x="450" y="450" xlink:href="#Rundweg-Balken"/>
    <use id="use171b" width="100" height="100" x="560" y="450" xlink:href="#Rundweg-Diagonal"/>
    <use id="use17r1" width="100" height="100" x="670" y="450" xlink:href="#Rundweg-Diagonal-Kreuz"/>
    <use id="use17t1" width="100" height="100" x="780" y="450" xlink:href="#Rundweg-Verbindungsweg"/>
</svg>
