<?xml version="1.0" encoding="UTF-8"?>
<svg xmlns="http://www.w3.org/2000/svg" viewBox="89.3046875 417.27734375 319.2265625 57.1328125">
    <path fill="#000000" fill-opacity="1" stroke="none" d="m 108.73948,425.81837 0,17.375 c 0,1.4725 -0.295,2.65125 -1.17875,3.82875 -0.58875,1.4725 -1.47125,2.0625 -2.945,2.35625 l 0.295,0 c 1.17875,0 3.23875,-1.1775 5.89,-3.82875 2.945,-2.94375 4.4175,-5.005 4.4175,-6.18375 l 0,-15.3125 c 0,-0.295 0.29375,-0.295 0.58875,-0.295 0.58875,0 1.4725,0.295 3.24,0.88375 1.4725,0.88375 2.355,1.17625 2.355,0.88375 5.00625,-2.945 7.36375,-4.7125 7.06875,-5.0075 0,-0.29375 -1.17875,-0.88375 -3.53375,-1.4725 -2.3575,-0.88375 -3.535,-1.4725 -4.4175,-1.4725 -0.59,0 -2.94625,1.18 -6.48,3.82875 -3.53375,2.35625 -5.3,3.8275 -5.3,4.41625"/>
</svg>