<?xml version="1.0" encoding="UTF-8"?>
<svg xmlns="http://www.w3.org/2000/svg" viewBox="114.1015625 24.5703125 77.0234375 77.0234375">
    <path fill="#F1F0EA" fill-opacity="1" fill-rule="evenodd" stroke="none" d="m 135.84984,93.944743 0,-2.625 5.175,0 1.125,-0.225 1.275,-1.275 0.225,-1.125 0,-26.925 -0.225,-0.9 -0.675,-0.9 -0.6,-0.6 -1.125,-0.225 -2.625,0 0,-2.4 23.1,0 0,31.95 0.225,1.125 1.275,1.275 1.125,0.225 5.175,0 0,2.625 -33.45,0 z m 25.65,-51.6 0,2.025 -0.675,1.725 -0.825,1.5 -1.125,1.275 -1.275,1.125 -1.575,0.9 -1.725,0.375 -1.725,0.225 -1.725,-0.225 -1.725,-0.375 -1.575,-0.9 -1.275,-1.125 -1.125,-1.275 -0.825,-1.5 -0.45,-1.725 -0.225,-2.025 0.225,-1.725 0.45,-1.725 0.825,-1.5 1.125,-1.35 1.275,-1.05 1.575,-0.9 1.725,-0.45 1.725,-0.225 1.725,0.225 1.725,0.45 1.575,0.9 1.275,1.05 1.125,1.35 0.825,1.5 0.675,1.725 0,1.725"/>
</svg>